<?xml version="1.0" standalone="no"?>
<!DOCTYPE svg PUBLIC "-//W3C//DTD SVG 20010904//EN"
 "http://www.w3.org/TR/2001/REC-SVG-20010904/DTD/svg10.dtd">
<svg version="1.0" xmlns="http://www.w3.org/2000/svg"
 width="4000.000000pt" height="4000.000000pt" viewBox="0 0 4000.000000 4000.000000"
 preserveAspectRatio="xMidYMid meet">

<g transform="translate(0.000000,4000.000000) scale(0.100000,-0.100000)"
fill="#000000" stroke="none">
<path d="M19351 29329 c-180 -9 -441 -35 -506 -49 -22 -5 -79 -12 -126 -15
-108 -8 -308 -34 -334 -45 -11 -4 -63 -15 -115 -24 -176 -30 -195 -34 -265
-53 -68 -19 -135 -35 -205 -49 -19 -3 -41 -10 -50 -15 -8 -5 -51 -18 -95 -29
-44 -12 -93 -27 -110 -35 -16 -7 -59 -21 -95 -30 -36 -9 -67 -20 -70 -24 -3
-4 -52 -22 -110 -41 -58 -18 -107 -36 -110 -39 -3 -4 -39 -17 -80 -30 -41 -14
-77 -27 -80 -30 -3 -4 -36 -17 -75 -30 -38 -14 -101 -39 -140 -56 -38 -18 -80
-36 -92 -39 -13 -4 -23 -12 -23 -17 0 -5 -6 -9 -13 -9 -7 0 -46 -19 -87 -42
-41 -24 -95 -52 -120 -63 -25 -11 -47 -22 -50 -25 -3 -3 -25 -14 -50 -25 -25
-10 -52 -24 -60 -31 -8 -7 -46 -26 -83 -43 -37 -17 -75 -37 -82 -45 -8 -8 -35
-22 -60 -31 -25 -10 -45 -21 -45 -24 0 -4 -18 -15 -40 -25 -33 -15 -440 -281
-483 -316 -7 -5 -67 -50 -133 -100 -67 -49 -133 -99 -145 -109 -28 -24 -101
-83 -155 -127 -22 -17 -70 -58 -109 -90 -38 -32 -79 -65 -90 -74 -67 -52 -355
-337 -455 -451 -41 -46 -99 -111 -130 -144 -31 -33 -77 -82 -101 -110 -24 -27
-47 -52 -50 -55 -3 -3 -21 -25 -40 -50 -19 -25 -77 -99 -130 -165 -52 -66
-122 -158 -154 -205 -32 -47 -96 -135 -142 -196 -46 -62 -83 -115 -83 -119 0
-4 -13 -25 -29 -48 -34 -49 -76 -115 -108 -172 -68 -118 -264 -489 -309 -584
-110 -232 -138 -294 -165 -366 -11 -27 -24 -59 -29 -70 -23 -46 -132 -349
-167 -460 -13 -44 -28 -89 -33 -100 -5 -11 -16 -47 -25 -80 -9 -33 -22 -82
-30 -110 -17 -59 -38 -143 -60 -240 -9 -38 -20 -79 -25 -90 -5 -11 -14 -49
-20 -85 -6 -36 -17 -99 -26 -140 -26 -129 -43 -232 -54 -330 -6 -52 -15 -113
-20 -135 -5 -22 -11 -69 -14 -105 -2 -36 -9 -108 -14 -160 -19 -173 -33 -384
-28 -445 2 -33 7 -170 11 -305 3 -135 11 -297 17 -360 6 -63 14 -158 18 -210
18 -221 61 -570 70 -570 3 0 7 -15 8 -32 2 -18 9 -60 16 -93 8 -33 17 -82 21
-110 3 -27 12 -68 20 -90 7 -22 25 -101 41 -175 15 -74 31 -137 34 -140 3 -3
18 -52 33 -110 39 -157 146 -488 167 -515 4 -5 15 -35 25 -65 10 -30 23 -68
30 -85 7 -16 20 -50 30 -75 16 -43 63 -151 123 -285 15 -33 44 -94 66 -135 21
-41 70 -136 108 -210 158 -305 207 -386 448 -745 34 -50 62 -86 219 -290 151
-194 345 -428 466 -560 45 -49 95 -105 110 -123 29 -34 219 -212 320 -298 33
-28 96 -83 140 -121 44 -37 100 -84 125 -103 25 -19 62 -50 82 -69 51 -46 174
-140 288 -219 52 -37 100 -70 105 -75 27 -22 129 -86 310 -195 110 -66 225
-136 255 -155 30 -19 93 -55 139 -78 46 -24 115 -61 155 -82 39 -21 100 -51
136 -66 340 -147 512 -221 517 -221 3 0 19 -6 36 -14 351 -161 1059 -347 1487
-391 30 -3 91 -10 135 -15 44 -6 154 -15 245 -20 265 -16 460 -29 535 -36 145
-12 242 -14 305 -4 36 5 130 14 210 20 80 5 204 14 275 19 72 6 164 12 205 15
145 9 438 47 510 66 19 5 112 25 205 44 191 40 329 76 520 135 151 46 407 137
473 167 53 25 453 194 457 194 7 0 138 59 175 79 19 10 89 46 155 81 66 34
127 68 135 75 8 7 34 22 57 34 132 66 541 324 731 460 54 39 299 235 447 356
143 118 442 397 482 448 12 16 75 86 140 155 65 70 140 154 167 187 28 33 63
74 79 90 30 30 158 197 189 246 9 14 23 32 30 40 20 21 127 164 181 244 27 39
73 106 104 150 46 67 173 270 202 325 41 77 85 157 91 165 4 6 37 67 73 138
36 70 73 137 82 150 8 12 20 40 26 61 6 21 21 55 33 75 13 20 27 47 31 61 4
14 18 48 30 75 56 121 75 168 75 180 0 7 13 42 28 77 16 34 37 88 46 118 9 30
24 67 32 82 8 14 14 33 14 42 0 9 4 24 10 34 19 32 84 233 120 367 12 44 28
103 36 130 8 28 21 79 28 115 8 36 23 103 35 150 45 180 48 193 81 385 33 192
49 317 55 435 4 63 10 131 15 150 26 108 34 685 12 850 -7 52 -17 181 -22 285
-11 222 -18 317 -24 336 -3 8 -10 55 -15 104 -20 173 -59 401 -103 590 -11 50
-27 119 -35 155 -8 36 -21 92 -29 125 -21 94 -62 243 -89 324 -14 40 -25 77
-25 82 0 19 -225 614 -239 634 -4 6 -18 37 -31 70 -36 92 -240 499 -291 580
-14 22 -43 74 -64 115 -64 125 -284 457 -424 640 -107 140 -116 152 -177 235
-84 115 -369 438 -519 590 -74 75 -276 265 -335 317 -256 222 -391 331 -571
460 -52 37 -132 95 -179 129 -217 155 -432 286 -665 402 -66 33 -122 63 -125
66 -15 17 -509 251 -530 251 -6 0 -29 9 -53 19 -72 33 -311 119 -472 171 -49
16 -103 33 -120 39 -85 29 -266 82 -311 90 -28 6 -96 21 -150 34 -110 27 -191
43 -274 53 -30 4 -60 10 -66 15 -12 9 -179 32 -349 48 -60 6 -123 12 -140 15
-16 3 -127 16 -245 30 -235 26 -556 32 -879 15z m2264 -4279 c28 -4 73 -16
100 -26 28 -10 76 -26 107 -37 32 -11 55 -23 52 -28 -3 -5 0 -9 7 -9 15 0 102
-42 110 -53 3 -4 16 -9 27 -10 12 -1 22 -7 22 -14 0 -7 8 -13 18 -13 11 0 29
-9 42 -20 13 -11 27 -20 32 -20 5 0 6 -4 3 -10 -3 -5 1 -10 9 -10 9 0 16 -5
16 -11 0 -12 54 -69 66 -69 16 0 93 -91 174 -205 27 -38 54 -75 60 -82 5 -7
10 -17 10 -22 0 -5 6 -16 13 -23 20 -21 47 -75 47 -92 0 -9 4 -16 9 -16 12 0
51 -107 51 -143 0 -24 3 -28 10 -17 8 12 10 10 10 -10 0 -14 7 -50 15 -80 20
-69 23 -441 5 -510 -7 -25 -14 -62 -17 -84 -3 -22 -8 -33 -13 -26 -4 6 -10
-14 -13 -45 -3 -31 -10 -62 -15 -68 -5 -7 -13 -27 -17 -44 -3 -18 -11 -33 -16
-33 -5 0 -9 -9 -9 -20 0 -11 -8 -29 -17 -39 -35 -38 -43 -50 -43 -65 0 -7 -7
-16 -15 -20 -8 -3 -15 -12 -15 -21 0 -18 -25 -59 -58 -95 -12 -14 -25 -33 -28
-42 -3 -10 -12 -18 -19 -18 -9 0 -12 -6 -8 -17 4 -11 3 -14 -6 -9 -8 5 -14 1
-18 -13 -3 -12 -12 -21 -19 -21 -8 0 -13 -3 -12 -8 2 -4 -28 -38 -65 -76 -65
-64 -69 -70 -63 -105 45 -298 55 -732 23 -966 -18 -131 -89 -439 -107 -459 -5
-7 -16 -34 -25 -61 -22 -65 -137 -298 -198 -400 -136 -227 -258 -366 -577
-655 -41 -38 -114 -96 -150 -120 -12 -8 -28 -20 -34 -26 -6 -5 -27 -19 -46
-29 -19 -11 -43 -26 -52 -34 -33 -26 -237 -131 -255 -131 -8 0 -12 -4 -9 -9 6
-8 -52 -34 -107 -47 -15 -3 -25 -9 -22 -12 6 -7 -72 -32 -178 -57 -39 -10 -74
-22 -77 -26 -3 -4 -64 -17 -135 -29 -72 -12 -139 -26 -150 -30 -49 -20 -260
-40 -420 -40 -164 1 -293 14 -510 54 -323 59 -602 168 -891 349 -153 97 -367
271 -505 413 -177 182 -417 561 -490 771 -10 31 -23 61 -28 67 -22 27 -93 281
-117 419 -37 215 -43 291 -43 557 0 264 9 354 55 580 14 69 81 287 104 335 5
11 19 45 31 75 12 30 27 61 32 68 6 7 20 34 32 60 49 106 185 317 284 442 131
165 453 460 615 564 101 65 374 207 431 226 22 7 54 18 70 25 172 73 417 122
730 146 252 19 675 -9 792 -52 37 -14 61 -18 78 -12 27 9 225 197 225 213 0 6
5 8 10 5 6 -3 13 1 16 9 3 9 12 16 19 16 7 0 24 9 38 20 14 11 32 20 40 20 9
0 17 3 19 8 5 12 86 52 105 52 15 0 16 2 3 10 -11 7 -8 10 16 10 17 0 37 7 44
15 7 8 18 15 26 15 15 0 97 26 129 40 11 5 31 11 45 13 48 8 535 5 585 -3z"/>
<path d="M19400 24169 c-36 -4 -90 -11 -120 -14 -78 -8 -253 -46 -264 -56 -6
-5 -23 -9 -38 -9 -15 0 -28 -4 -28 -8 0 -4 -32 -16 -70 -26 -39 -10 -77 -24
-84 -32 -8 -8 -17 -14 -21 -14 -10 0 -99 -42 -105 -49 -3 -4 -35 -22 -72 -41
-38 -19 -68 -38 -68 -42 0 -4 -5 -8 -10 -8 -12 0 -95 -57 -160 -109 -25 -21
-57 -45 -72 -54 -31 -20 -120 -99 -190 -170 -107 -108 -278 -350 -345 -487
-65 -133 -155 -369 -166 -435 -19 -110 -39 -216 -47 -253 -13 -57 -13 -366 1
-455 30 -207 51 -320 64 -352 8 -19 15 -41 15 -50 0 -47 150 -403 196 -462 13
-17 24 -34 24 -37 0 -10 139 -196 211 -282 38 -45 101 -111 141 -148 76 -68
267 -209 334 -246 22 -12 75 -41 119 -66 161 -89 308 -145 495 -188 178 -42
458 -63 610 -46 261 28 299 35 465 85 44 13 107 31 140 41 33 9 87 31 120 49
139 75 163 89 232 128 99 57 371 275 430 344 26 32 62 73 79 92 17 20 41 52
54 71 13 19 35 49 50 65 48 53 146 217 184 310 21 50 42 99 47 110 56 128 113
340 139 522 15 102 16 393 1 453 -6 25 -11 73 -11 108 l0 62 -38 0 c-21 0 -44
-6 -51 -12 -16 -17 -531 -18 -552 -2 -8 6 -48 19 -89 29 -41 9 -88 23 -105 30
-16 8 -40 16 -52 20 -13 3 -23 11 -23 16 0 5 -14 9 -31 9 -16 0 -28 4 -25 9 4
5 -7 12 -24 16 -17 4 -28 10 -25 15 3 4 -11 11 -30 14 -20 4 -33 11 -30 17 4
5 -3 9 -14 9 -12 0 -21 6 -21 14 0 8 -10 16 -22 18 -13 2 -22 9 -20 16 1 6 -7
12 -17 12 -11 0 -23 9 -26 20 -4 11 -11 18 -16 15 -5 -4 -12 1 -15 9 -3 9 -10
13 -15 10 -5 -3 -9 0 -9 7 0 15 -47 59 -54 51 -3 -3 -6 0 -6 7 0 6 -13 25 -30
41 -16 16 -30 36 -30 45 0 9 -4 14 -9 10 -5 -3 -13 5 -17 17 -3 12 -13 28 -20
36 -8 7 -14 21 -14 30 0 15 -2 15 -10 2 -8 -13 -10 -13 -10 2 0 9 -6 23 -14
30 -7 8 -17 24 -20 36 -4 12 -12 20 -17 16 -5 -3 -9 -2 -8 3 4 24 -2 53 -10
48 -10 -6 -51 76 -51 102 0 8 -4 12 -9 9 -5 -4 -12 13 -16 36 -4 24 -12 46
-17 49 -9 6 -15 37 -37 179 -7 41 -17 104 -22 140 -6 36 -9 97 -6 135 11 151
28 290 38 300 5 5 9 21 9 36 0 29 10 27 -210 49 -113 11 -349 10 -440 -1z"/>
</g>
</svg>
