<?xml version="1.0" encoding="UTF-8"?>
<svg version="1.1" xmlns="http://www.w3.org/2000/svg" width="500" height="500">
<path d="M0 0 C165 0 330 0 500 0 C500 165 500 330 500 500 C335 500 170 500 0 500 C0 335 0 170 0 0 Z " fill="#000000" transform="translate(0,0)"/>
<path d="M0 0 C1.98 0 3.96 0 6 0 C6.625 2.875 6.625 2.875 7 6 C5 8 5 8 2.20626831 8.85806274 C-3.62777877 10.93590373 -7.4958889 14.98069693 -11 20 C-12.33155192 24.59477926 -12.31160333 28.90488093 -12.1953125 33.6640625 C-12.20335907 34.93728363 -12.21140564 36.21050476 -12.21969604 37.52230835 C-12.2320804 40.87491661 -12.2018899 44.22141428 -12.15020752 47.57324219 C-12.10803462 51.00589126 -12.1229803 54.43826945 -12.1328125 57.87109375 C-12.14061414 64.58168888 -12.09218751 71.29007306 -12 78 C-10.94578857 78.1131958 -9.89157715 78.2263916 -8.80541992 78.34301758 C-1.38469293 79.17896093 5.65184807 80.06314949 12.6875 82.6875 C18.75335235 84.99248288 18.75335235 84.99248288 25 84 C28.6268936 81.33862756 31.76302247 78.11844032 35 75 C36.00714966 74.06699231 37.01497284 73.13471119 38.0234375 72.203125 C39.01695232 71.26181563 40.00916902 70.319134 41 69.375 C41.9075 68.51648438 42.815 67.65796875 43.75 66.7734375 C46.322445 63.60254176 47.01308507 60.91919103 48 57 C48.66 56.67 49.32 56.34 50 56 C50.05384521 53.70858714 50.09272087 51.41681812 50.125 49.125 C50.14820313 47.84882812 50.17140625 46.57265625 50.1953125 45.2578125 C50.35641524 41.91406662 50.35641524 41.91406662 48 40 C48.55555556 35.44444444 48.55555556 35.44444444 50 34 C52.4375 33.8125 52.4375 33.8125 55 34 C55.66 34.66 56.32 35.32 57 36 C56.44444444 40.55555556 56.44444444 40.55555556 55 42 C54.89953761 44.6149768 54.86127449 47.19779089 54.875 49.8125 C54.87113281 50.53759766 54.86726562 51.26269531 54.86328125 52.00976562 C54.86969335 55.5139779 55.09556211 58.62287869 56 62 C54.36912556 64.49427856 53.06092486 64.98265488 50.18896484 65.80029297 C46.53149529 67.17625418 44.75459394 68.78424778 42.0390625 71.5703125 C41.15605469 72.46621094 40.27304687 73.36210938 39.36328125 74.28515625 C38.00783203 75.69087891 38.00783203 75.69087891 36.625 77.125 C35.68973953 78.08034573 34.7535498 79.03478266 33.81640625 79.98828125 C31.53497707 82.31675021 29.26341988 84.65404307 27 87 C28.75244247 88.6483633 28.75244247 88.6483633 31 90 C34.70560346 89.64509392 36.50793955 87.88068271 39.09423828 85.32568359 C39.88831085 84.54752289 40.68238342 83.76936218 41.5005188 82.96762085 C42.34855072 82.11979034 43.19658264 81.27195984 44.0703125 80.3984375 C44.94775116 79.52861237 45.82518982 78.65878723 46.72921753 77.76260376 C49.05889998 75.44650078 51.38056121 73.12266384 53.70056152 70.796875 C55.12066937 69.37932284 56.54828201 67.96982193 57.97900391 66.56298828 C60.73070389 63.85414226 63.46502731 61.12884831 66.1953125 58.3984375 C67.04739288 57.56275238 67.89947327 56.72706726 68.77737427 55.86605835 C73.1683471 51.42321767 76.03392959 48.2569055 77 42 C77.66 42 78.32 42 79 42 C78.88601335 40.37419034 78.75844341 38.74932843 78.625 37.125 C78.55539062 36.22007813 78.48578125 35.31515625 78.4140625 34.3828125 C78.20431868 31.82058097 78.20431868 31.82058097 76 30 C76.55555556 25.44444444 76.55555556 25.44444444 78 24 C80.4375 23.8125 80.4375 23.8125 83 24 C83.66 24.66 84.32 25.32 85 26 C84.44444444 30.55555556 84.44444444 30.55555556 83 32 C82.90030159 33.74765452 82.87031955 35.4995103 82.875 37.25 C82.87113281 38.68085937 82.87113281 38.68085937 82.8671875 40.140625 C82.92419167 42.99800871 82.92419167 42.99800871 83.5703125 45.734375 C84 48 84 48 83 50 C82.01821777 50.18820313 81.03643555 50.37640625 80.02490234 50.5703125 C74.25822058 52.09826963 70.63852809 56.72852489 66.6015625 60.875 C65.72599701 61.75526855 64.85043152 62.63553711 63.94833374 63.54248047 C61.63466967 65.87383843 59.33253171 68.21584443 57.03515625 70.56323242 C54.68895368 72.95371063 52.32570133 75.3271206 49.96484375 77.703125 C46.52838949 81.17353122 43.09233441 84.64423918 39.67431641 88.1328125 C38.98705475 88.83293457 38.29979309 89.53305664 37.59170532 90.25439453 C35.92497474 91.92322556 35.92497474 91.92322556 35 94 C37.31 94.66 39.62 95.32 42 96 C45.10952214 92.9897748 48.20536605 89.96630528 51.28955078 86.93017578 C52.33932842 85.90044317 53.39267738 84.87433775 54.44970703 83.85205078 C55.97354217 82.3770473 57.48381245 80.88922783 58.9921875 79.3984375 C59.90339355 78.50817871 60.81459961 77.61791992 61.75341797 76.70068359 C64.12648532 73.84794821 65.0797673 71.56647398 66 68 C68.475 67.505 68.475 67.505 71 67 C71.350625 67.78375 71.70125 68.5675 72.0625 69.375 C74.61665844 72.83547272 76.88222494 73.14536744 81 74 C81.6875 76.3125 81.6875 76.3125 82 79 C80.875 80.875 80.875 80.875 79 82 C76.3125 81.6875 76.3125 81.6875 74 81 C73.67 78.69 73.34 76.38 73 74 C64.60342267 76.10904596 59.83680188 81.58557084 54 87.6875 C53.02592144 88.68670038 52.05066966 89.68475845 51.07421875 90.68164062 C48.70438701 93.11013157 46.3470582 95.54952614 44 98 C47.09900343 101.69624727 50.16389955 105.26298897 53.75 108.5 C66.59434374 121.24591965 77.4770015 141.59743513 78.09863281 159.90478516 C78.10122492 162.60533012 78.07175795 165.30049045 78 168 C78.64324219 167.99476318 79.28648437 167.98952637 79.94921875 167.98413086 C92.67874243 167.89447034 105.30766782 167.95474911 118 169 C118.33 168.01 118.66 167.02 119 166 C120.16273438 166.28230469 121.32546875 166.56460938 122.5234375 166.85546875 C126.17792059 167.3084573 127.90874583 166.81619409 130.8515625 164.61328125 C132.12862802 163.5354274 133.38631721 162.43425319 134.625 161.3125 C135.8862077 160.22315769 137.14920424 159.13588268 138.4140625 158.05078125 C139.01420166 157.52605225 139.61434082 157.00132324 140.23266602 156.46069336 C141.88941631 155.09139691 143.565822 153.92356273 145.37890625 152.7734375 C148.37176019 150.74846628 148.98954241 149.39881188 150 146 C151 145 151 145 153.5 144.875 C156 145 156 145 157 146 C157.04080783 147.99958364 157.04254356 150.00045254 157 152 C156.44965088 152.14405273 155.89930176 152.28810547 155.33227539 152.43652344 C149.01767894 154.28613847 144.52971952 157.14806465 139.4375 161.25 C138.73431641 161.79785156 138.03113281 162.34570312 137.30664062 162.91015625 C134.3994541 165.1941832 131.55475603 167.47509688 128.86767578 170.01757812 C128.18044434 170.66662109 127.49321289 171.31566406 126.78515625 171.984375 C126.17679932 172.58475586 125.56844238 173.18513672 124.94165039 173.80371094 C123 175 123 175 120.26342773 174.68847656 C119.14303101 174.34768066 119.14303101 174.34768066 118 174 C117.67 173.01 117.34 172.02 117 171 C116.24493164 171.00523682 115.48986328 171.01047363 114.71191406 171.01586914 C111.22461816 171.03691225 107.73733569 171.0497459 104.25 171.0625 C103.06277344 171.07087891 101.87554687 171.07925781 100.65234375 171.08789062 C93.04697478 171.10867032 85.56658475 170.77144376 78 170 C78 172.64 78 175.28 78 178 C85.80584812 177.89264527 93.61160107 177.78004222 101.41727352 177.66066074 C105.0414158 177.60539903 108.6655661 177.551974 112.28979492 177.50268555 C115.78467099 177.45508968 119.2794462 177.4027489 122.77420235 177.34705925 C124.76233823 177.31663587 126.75054809 177.29118018 128.73875427 177.26576233 C129.93992386 177.24581711 131.14109344 177.22587189 132.37866211 177.20532227 C133.44233505 177.18977798 134.506008 177.1742337 135.60191345 177.15821838 C137.95195928 177.26771448 137.95195928 177.26771448 139 176 C140.0725 176.020625 141.145 176.04125 142.25 176.0625 C145.80208608 176.00329857 147.85105168 175.52676282 151 174 C150.938125 172.824375 150.938125 172.824375 150.875 171.625 C151 169 151 169 153 167 C157.55555556 167.55555556 157.55555556 167.55555556 159 169 C159.1875 171.4375 159.1875 171.4375 159 174 C158.34 174.66 157.68 175.32 157 176 C156.236875 175.95875 155.47375 175.9175 154.6875 175.875 C150.99606475 176.04669466 149.64309652 177.49601382 147 180 C145.23676495 182.12603185 145.23676495 182.12603185 144 184 C139.125 183.125 139.125 183.125 138 182 C136.12985269 181.84700731 134.25413762 181.76161183 132.37866211 181.70288086 C131.17749252 181.66291489 129.97632294 181.62294891 128.73875427 181.58177185 C127.4314888 181.54318558 126.12422333 181.5045993 124.77734375 181.46484375 C123.43354464 181.42185259 122.08975908 181.37843613 120.74598694 181.33460999 C117.20332047 181.22021798 113.66049873 181.11162585 110.11761475 181.00421143 C106.50473136 180.89365734 102.89202332 180.77765926 99.27929688 180.66210938 C92.18636065 180.43605618 85.09324623 180.21612529 78 180 C78 182.97 78 185.94 78 189 C84.2296431 189.0493392 90.45917315 189.08569057 96.68896484 189.10986328 C98.8094277 189.11993751 100.92987661 189.13359733 103.05029297 189.15087891 C106.09345943 189.17506489 109.13644266 189.18646869 112.1796875 189.1953125 C113.60787308 189.21079636 113.60787308 189.21079636 115.06491089 189.22659302 C115.94567291 189.22674408 116.82643494 189.22689514 117.73388672 189.22705078 C118.51110077 189.231492 119.28831482 189.23593323 120.08908081 189.24050903 C122.24073389 189.16811395 122.24073389 189.16811395 124 187 C126.625 187.375 126.625 187.375 129 188 C129.33 188.99 129.66 189.98 130 191 C131.9765161 191.73336796 133.98335031 192.385534 136 193 C137.2408076 193.55287799 138.47117696 194.12963867 139.69140625 194.7265625 C140.32626953 195.0359375 140.96113281 195.3453125 141.61523438 195.6640625 C142.91966164 196.30777184 144.22173948 196.95626291 145.52148438 197.609375 C149.23880921 199.40942243 151.89815982 200.16318352 156 200 C156.66 200.66 157.32 201.32 158 202 C157.625 205.125 157.625 205.125 157 208 C154.625 208.125 154.625 208.125 152 208 C151.34 207.34 150.68 206.68 150 206 C150 205.01 150 204.02 150 203 C149.13117188 202.73445312 148.26234375 202.46890625 147.3671875 202.1953125 C144.05761944 201.02045423 141.19874841 199.56270801 138.125 197.875 C132.94473828 195.2075518 129.73121642 194.57546545 124 195 C123.34 194.34 122.68 193.68 122 193 C119.98331589 192.6320239 119.98331589 192.6320239 117.64208984 192.58935547 C116.74130707 192.54946503 115.84052429 192.50957458 114.91244507 192.46847534 C113.93844757 192.43505035 112.96445007 192.40162537 111.9609375 192.3671875 C110.46694931 192.30484421 110.46694931 192.30484421 108.94277954 192.24124146 C105.75380648 192.110228 102.56449784 191.99247249 99.375 191.875 C97.21611081 191.78863149 95.05725584 191.70140297 92.8984375 191.61328125 C87.59931542 191.3988641 82.29985784 191.19533677 77 191 C76.87098801 191.60600037 76.74197601 192.21200073 76.60905457 192.83636475 C76.43537857 193.63769836 76.26170258 194.43903198 76.08276367 195.26464844 C75.91250168 196.0562738 75.74223969 196.84789917 75.56681824 197.66351318 C74.47002664 202.18460821 72.62943944 206.44649156 70.92578125 210.765625 C69.92215598 214.27196138 69.92029251 215.57921145 71 219 C73.847892 222.70626535 77.24856226 225.89704871 80.5625 229.1875 C81.44486328 230.10208984 82.32722656 231.01667969 83.23632812 231.95898438 C88.23837518 236.96842543 91.79694851 240.41490032 99 241 C102.7400154 239.26851139 104.53257012 238.18232264 106.0625 234.3125 C106.371875 233.549375 106.68125 232.78625 107 232 C109.5 231.0625 109.5 231.0625 112 231 C114 233 114 233 114.25 235.5 C114 238 114 238 112 240 C110.329375 240.2165625 110.329375 240.2165625 108.625 240.4375 C104.9731949 241.00415941 103.72351034 241.67997267 101 244 C100.34 244 99.68 244 99 244 C98.67 245.32 98.34 246.64 98 248 C95.6875 248.6875 95.6875 248.6875 93 249 C90.45567096 247.39801505 90.02289397 246.08042903 89.19921875 243.18676758 C87.83347261 239.55747517 86.25413148 237.77905258 83.5 235.07421875 C82.613125 234.19572266 81.72625 233.31722656 80.8125 232.41210938 C79.884375 231.51298828 78.95625 230.61386719 78 229.6875 C77.071875 228.76904297 76.14375 227.85058594 75.1875 226.90429688 C70.97414082 222.44531255 70.97414082 222.44531255 66 219 C64.92474806 221.65228812 63.90543849 224.28368454 63 227 C67.69612876 231.82317574 72.41196612 236.62642323 77.1418457 241.41650391 C78.74766232 243.04742406 80.34895763 244.68280905 81.94555664 246.32275391 C84.2448443 248.68286928 86.56005581 251.02630951 88.87890625 253.3671875 C89.58648575 254.10057343 90.29406525 254.83395935 91.02308655 255.58956909 C95.18666871 259.755463 98.15302631 261.97819877 104 263 C106.63379708 259.34666857 108.46884894 256.51478398 109 252 C111.3125 251.3125 111.3125 251.3125 114 251 C115.875 252.1875 115.875 252.1875 117 254 C116.72963853 256.97397616 116.14553974 257.85446026 114 260 C112.824375 260.4021875 112.824375 260.4021875 111.625 260.8125 C108.34416488 262.29668732 107.07671646 264.09259696 105 267 C104.4225 267.763125 103.845 268.52625 103.25 269.3125 C102.8375 269.869375 102.425 270.42625 102 271 C100.35 270.67 98.7 270.34 97 270 C99.53842436 273.10251866 102.2340704 273.85384751 106 275 C107 276 107 276 107.5 278.1875 C106.80540964 282.09457075 104.72576893 283.08134639 101.69140625 285.44140625 C99.32087958 287.62579457 98.66415114 289.900628 98 293 C95.6875 293.625 95.6875 293.625 93 294 C92.01 293.34 91.02 292.68 90 292 C90.75 287.25 90.75 287.25 93 285 C94.98356483 284.28591666 96.98315437 283.61382258 99 283 C99.12179464 277.70661767 97.74127151 275.29874593 94.12280273 271.44165039 C92.40838884 269.7281831 90.67755088 268.03104529 88.93359375 266.34765625 C88.02497086 265.44752304 87.11634796 264.54738983 86.18019104 263.61997986 C83.77230284 261.23993568 81.35229858 258.87374951 78.92529297 256.51330566 C76.4477753 254.09738037 73.9873461 251.664186 71.52539062 249.23242188 C66.69913621 244.4722603 61.85615509 239.72964366 57 235 C55.88507922 235.94774577 54.77128419 236.89681596 53.65795898 237.84643555 C53.03759262 238.37480515 52.41722626 238.90317474 51.77806091 239.44755554 C49.45048828 241.4797847 47.27198942 243.65314486 45.0625 245.8125 C40.53392985 249.96316444 35.85236891 253.11968498 30.5 256.125 C29.80527588 256.51534424 29.11055176 256.90568848 28.39477539 257.30786133 C23.41465514 260 23.41465514 260 20 260 C20.33 276.17 20.66 292.34 21 309 C24.85938975 310.34513424 24.85938975 310.34513424 28 309 C28.33 307.35 28.66 305.7 29 304 C31.375 303.375 31.375 303.375 34 303 C34.66 303.66 35.32 304.32 36 305 C35.625 308.125 35.625 308.125 35 311 C34.278125 311.12375 33.55625 311.2475 32.8125 311.375 C28.6217322 312.30628173 25.73214045 313.37500206 22.4375 316.1875 C20 318 20 318 17.75 317.8125 C16 317 16 317 15 316 C14.95919217 314.00041636 14.95745644 311.99954746 15 310 C15.66 310 16.32 310 17 310 C17 294.16 17 278.32 17 262 C15.35 262.66 13.7 263.32 12 264 C11.67 271.26 11.34 278.52 11 286 C11.99 286.33 12.98 286.66 14 287 C14.125 289.375 14.125 289.375 14 292 C13.34 292.66 12.68 293.32 12 294 C7.44444444 293.44444444 7.44444444 293.44444444 6 292 C5.8125 289.5625 5.8125 289.5625 6 287 C6.66 286.34 7.32 285.68 8 285 C8.36952049 282.87139338 8.36952049 282.87139338 8.4140625 280.4296875 C8.47207031 279.08583984 8.47207031 279.08583984 8.53125 277.71484375 C8.5621875 276.77769531 8.593125 275.84054687 8.625 274.875 C8.68300781 273.45767578 8.68300781 273.45767578 8.7421875 272.01171875 C8.83661346 269.67467625 8.92218394 267.33764499 9 265 C7.68 265 6.36 265 5 265 C5.09344448 269.52104123 5.1995163 274.04154113 5.31738281 278.56201172 C5.35570301 280.10034021 5.39055056 281.63875925 5.421875 283.17724609 C5.46746059 285.38672276 5.5254634 287.59557448 5.5859375 289.8046875 C5.60326431 290.83914505 5.60326431 290.83914505 5.62094116 291.89450073 C5.64951022 295.8920154 5.64951022 295.8920154 8 299 C7.625 301.625 7.625 301.625 7 304 C2.25 305.125 2.25 305.125 0 304 C-3.5 303.75 -3.5 303.75 -7 304 C-7.66 304.66 -8.32 305.32 -9 306 C-12.125 305.625 -12.125 305.625 -15 305 C-15.04254356 303.00045254 -15.04080783 300.99958364 -15 299 C-14 298 -14 298 -11.5 297.875 C-9 298 -9 298 -8 299 C-6.65252916 299.23075082 -5.29622435 299.41153063 -3.9375 299.5625 C-2.638125 299.706875 -1.33875 299.85125 0 300 C1.16402727 296.50791819 1.21118508 293.60852228 1.31640625 289.92578125 C1.33718735 289.2419487 1.35796844 288.55811615 1.37937927 287.8535614 C1.44466154 285.6733079 1.50366017 283.49293595 1.5625 281.3125 C1.60570553 279.83267014 1.64932047 278.35285217 1.69335938 276.87304688 C1.80032083 273.24882378 1.90164823 269.62446811 2 266 C0.29650391 266.48533203 0.29650391 266.48533203 -1.44140625 266.98046875 C-20.45631644 271.70391778 -41.88713749 266.60083411 -59 258 C-60.25069108 257.2227253 -61.49821452 256.44032557 -62.7421875 255.65234375 C-65.72597578 253.70941933 -65.72597578 253.70941933 -68.11328125 254.453125 C-70.57427884 256.47083731 -72.90701515 258.52677991 -75.1875 260.75 C-76.06792969 261.59046875 -76.94835937 262.4309375 -77.85546875 263.296875 C-80.26644167 266.33584269 -80.86105129 268.15218967 -81 272 C-78.36688578 275.79168448 -75.3255013 276.75041074 -71 278 C-70 279 -70 279 -69.875 281.5 C-70 284 -70 284 -71 285 C-72.99958364 285.04080783 -75.00045254 285.04254356 -77 285 C-77.18175781 284.45730469 -77.36351562 283.91460937 -77.55078125 283.35546875 C-77.80214844 282.64003906 -78.05351562 281.92460937 -78.3125 281.1875 C-78.55613281 280.47980469 -78.79976563 279.77210938 -79.05078125 279.04296875 C-81.01714412 274.81083796 -83.74882018 273.56622414 -88 272 C-89 271 -89 271 -89.125 268.5 C-89 266 -89 266 -88 265 C-86.00041636 264.95919217 -83.99954746 264.95745644 -82 265 C-81.76539063 264.43796875 -81.53078125 263.8759375 -81.2890625 263.296875 C-79.69337 260.45364109 -77.71075457 258.51901873 -75.375 256.25 C-74.55773437 255.45078125 -73.74046875 254.6515625 -72.8984375 253.828125 C-72.27195312 253.22484375 -71.64546875 252.6215625 -71 252 C-71.66 251.01 -72.32 250.02 -73 249 C-75.81121293 250.28461836 -77.89444437 251.63468228 -80.1003418 253.79394531 C-80.67741379 254.35502991 -81.25448578 254.9161145 -81.8490448 255.49420166 C-82.76488091 256.40199371 -82.76488091 256.40199371 -83.69921875 257.328125 C-84.65269951 258.26806305 -84.65269951 258.26806305 -85.6254425 259.22698975 C-86.96533255 260.55239444 -88.30244743 261.88060971 -89.63696289 263.21142578 C-91.67858261 265.24113463 -93.73810248 267.25143475 -95.79882812 269.26171875 C-97.10010541 270.55353304 -98.40027366 271.84646566 -99.69921875 273.140625 C-100.31584885 273.73772278 -100.93247894 274.33482056 -101.5677948 274.95001221 C-105.06527816 278.48494478 -106.7854007 280.8042303 -107 286 C-105.88625 285.79375 -104.7725 285.5875 -103.625 285.375 C-102.42875 285.25125 -101.2325 285.1275 -100 285 C-99.34 285.66 -98.68 286.32 -98 287 C-98.55555556 291.55555556 -98.55555556 291.55555556 -100 293 C-102.4375 293.1875 -102.4375 293.1875 -105 293 C-105.66 292.34 -106.32 291.68 -107 291 C-107 290.01 -107 289.02 -107 288 C-108.134375 287.690625 -109.26875 287.38125 -110.4375 287.0625 C-114 286 -114 286 -115 285 C-115.1875 282.5625 -115.1875 282.5625 -115 280 C-113 278 -113 278 -110.30810547 277.28369141 C-105.86567454 275.55983149 -103.34348103 272.84610168 -100.0703125 269.4609375 C-99.43511688 268.82008209 -98.79992126 268.17922668 -98.14547729 267.51895142 C-96.12902715 265.4802022 -94.12697139 263.42795865 -92.125 261.375 C-90.75613676 259.98606355 -89.38635461 258.59803208 -88.015625 257.2109375 C-84.66634999 253.81768091 -81.32991132 250.41225647 -78 247 C-79.04874998 244.37812506 -79.64931313 243.20628639 -82.125 241.75 C-82.74375 241.5025 -83.3625 241.255 -84 241 C-87.67912106 244.57995337 -91.34468131 248.17306975 -94.99853516 251.77880859 C-96.24232726 253.00253432 -97.48969229 254.22263985 -98.74072266 255.43896484 C-100.5424935 257.19200044 -102.33084441 258.95782503 -104.1171875 260.7265625 C-104.95478104 261.53318832 -104.95478104 261.53318832 -105.80929565 262.35610962 C-109.14928498 265.69415983 -110.7826221 268.32126511 -112 273 C-113 274 -113 274 -115.5 274.125 C-118 274 -118 274 -119 273 C-119.07226502 271.14712498 -119.0838122 269.29166122 -119.0625 267.4375 C-119.05347656 266.42558594 -119.04445312 265.41367187 -119.03515625 264.37109375 C-119.02355469 263.58863281 -119.01195312 262.80617188 -119 262 C-120.32 261.34 -121.64 260.68 -123 260 C-123.1875 257.625 -123.1875 257.625 -123 255 C-120 253 -120 253 -117.875 253.3125 C-116 254 -116 254 -115 255 C-114.8386942 258.06481021 -115.01849759 260.05549278 -116 263 C-116 263.99 -116 264.98 -116 266 C-111.79063482 263.73702919 -108.62642851 260.862358 -105.33203125 257.45703125 C-104.81114426 256.92857101 -104.29025726 256.40011078 -103.75358582 255.8556366 C-102.10161173 254.17936399 -100.45631196 252.49677502 -98.8125 250.8125 C-96.63719874 248.58416571 -94.4554689 246.36242662 -92.26953125 244.14453125 C-91.77056839 243.62897171 -91.27160553 243.11341217 -90.75752258 242.58222961 C-89.54255774 241.34997383 -88.27547803 240.16950831 -87 239 C-86.34 239 -85.68 239 -85 239 C-85.4846875 238.42894531 -85.969375 237.85789062 -86.46875 237.26953125 C-99.88159233 221.04515082 -110 202.44401939 -110 181 C-124.52 181 -139.04 181 -154 181 C-154 181.99 -154 182.98 -154 184 C-153.04287109 184.30744141 -153.04287109 184.30744141 -152.06640625 184.62109375 C-150.82697266 185.02521484 -150.82697266 185.02521484 -149.5625 185.4375 C-148.73878906 185.70433594 -147.91507813 185.97117188 -147.06640625 186.24609375 C-145 187 -145 187 -144 188 C-143.8125 190.4375 -143.8125 190.4375 -144 193 C-146 195 -146 195 -148.4375 195.0625 C-151 194 -151 194 -152.6875 190.5625 C-153.120625 189.386875 -153.55375 188.21125 -154 187 C-156.22922955 184.77077045 -158.09135278 184.11871047 -161 183 C-162 182 -162 182 -162.125 179.5 C-162 177 -162 177 -161 176 C-158 175.875 -158 175.875 -155 176 C-154.67 176.33 -154.34 176.66 -154 177 C-152.65016252 177.12185143 -151.29425299 177.17766831 -149.93920898 177.20532227 C-149.07839218 177.22526749 -148.21757538 177.24521271 -147.33067322 177.26576233 C-146.39526199 177.28247482 -145.45985077 177.29918732 -144.49609375 177.31640625 C-143.06657127 177.3475779 -143.06657127 177.3475779 -141.60816956 177.37937927 C-138.5513559 177.44498177 -135.49445344 177.50380918 -132.4375 177.5625 C-130.37043337 177.60567506 -128.30337586 177.64928901 -126.23632812 177.69335938 C-121.15764405 177.80067401 -116.0788703 177.90191091 -111 178 C-111 175.36 -111 172.72 -111 170 C-117.7995704 170.09212018 -124.59877858 170.19940545 -131.39794922 170.31738281 C-133.71234669 170.35573401 -136.02680502 170.3905759 -138.34130859 170.421875 C-141.66265664 170.4673924 -144.98358341 170.52540843 -148.3046875 170.5859375 C-149.86411575 170.60326431 -149.86411575 170.60326431 -151.45504761 170.62094116 C-152.89631516 170.6507457 -152.89631516 170.6507457 -154.36669922 170.68115234 C-155.63910965 170.70113785 -155.63910965 170.70113785 -156.93722534 170.7215271 C-159.22186119 170.81776158 -159.22186119 170.81776158 -161 173 C-162.0725 172.95875 -163.145 172.9175 -164.25 172.875 C-168.79829116 173.02660971 -170.54912914 174.09813132 -174 177 C-174.7734375 178.36125 -174.7734375 178.36125 -175.5625 179.75 C-176.036875 180.4925 -176.51125 181.235 -177 182 C-179.625 182.375 -179.625 182.375 -182 182 C-183 181 -183 181 -183.125 178 C-183 175 -183 175 -182 174 C-181.154375 174.0825 -180.30875 174.165 -179.4375 174.25 C-174.79104121 173.91207572 -171.52251651 172.01476638 -168 169 C-166.7632402 166.92497624 -166.7632402 166.92497624 -166 165 C-164.02 165 -162.04 165 -160 165 C-160 165.66 -160 166.32 -160 167 C-143.5 167 -127 167 -110 167 C-110 164.69 -110 162.38 -110 160 C-116.65716038 160.09212435 -123.31395093 160.19941016 -129.97070312 160.31738281 C-132.23659682 160.35573271 -134.50255265 160.39057483 -136.76855469 160.421875 C-140.02040867 160.46739527 -143.2718326 160.52541076 -146.5234375 160.5859375 C-147.54118256 160.59748871 -148.55892761 160.60903992 -149.60751343 160.62094116 C-151.01874985 160.6507457 -151.01874985 160.6507457 -152.45849609 160.68115234 C-153.70425919 160.70113785 -153.70425919 160.70113785 -154.97518921 160.7215271 C-157.22613614 160.82335542 -157.22613614 160.82335542 -159 163 C-163.55555556 162.44444444 -163.55555556 162.44444444 -165 161 C-165.1875 158.5625 -165.1875 158.5625 -165 156 C-163 154 -163 154 -160.625 153.125 C-157.57951808 151.81979346 -156.0760641 150.57718302 -154 148 C-152.73215876 144.86649283 -152.73215876 144.86649283 -152 142 C-149.625 141.375 -149.625 141.375 -147 141 C-145 143 -145 143 -144.75 145.5 C-145 148 -145 148 -147 150 C-148.7015625 150.433125 -148.7015625 150.433125 -150.4375 150.875 C-154.42106112 151.75282134 -154.42106112 151.75282134 -157 156 C-141.16 156.33 -125.32 156.66 -109 157 C-108.67 154.03 -108.34 151.06 -108 148 C-105.52844734 139.03939077 -101.63148178 131.01341423 -97 123 C-96.32776371 121.66946605 -95.66018879 120.33655265 -95 119 C-100.14532687 113.75315924 -105.30634621 108.52213909 -110.47851562 103.30175781 C-112.23574198 101.52443035 -113.98935971 99.74352745 -115.73925781 97.95898438 C-118.256839 95.3928233 -120.78716634 92.83984856 -123.3203125 90.2890625 C-124.09867462 89.49005524 -124.87703674 88.69104797 -125.6789856 87.86782837 C-129.65668185 83.8885088 -132.4468812 81.47516487 -138 80 C-138.33 79.01 -138.66 78.02 -139 77 C-141.47923801 76.97314905 -143.9581884 76.95323453 -146.4375 76.9375 C-147.14455078 76.92912109 -147.85160156 76.92074219 -148.58007812 76.91210938 C-150.38693559 76.90346412 -152.19387603 76.94779989 -154 77 C-154.33 77.33 -154.66 77.66 -155 78 C-157.5 78.125 -157.5 78.125 -160 78 C-161 77 -161 77 -161.0625 73.9375 C-161.041875 72.968125 -161.02125 71.99875 -161 71 C-158.03 70.505 -158.03 70.505 -155 70 C-154.34 71.32 -153.68 72.64 -153 74 C-152.16855469 73.98839844 -151.33710938 73.97679688 -150.48046875 73.96484375 C-149.39378906 73.95582031 -148.30710938 73.94679688 -147.1875 73.9375 C-146.10855469 73.92589844 -145.02960938 73.91429688 -143.91796875 73.90234375 C-141 74 -141 74 -138 75 C-137.505 73.515 -137.505 73.515 -137 72 C-136.38640625 71.86722656 -135.7728125 71.73445313 -135.140625 71.59765625 C-131.29279362 70.52335296 -130.07865663 67.01018417 -128.1875 63.71484375 C-126.50853806 59.87642748 -126.70455915 57.1361719 -127 53 C-125 51 -125 51 -122.5 50.75 C-120 51 -120 51 -118 53 C-118.125 55.5 -118.125 55.5 -119 58 C-120.33333333 58.66666667 -121.66666667 59.33333333 -123 60 C-125.02052051 62.67230132 -126.19294965 64.58348663 -125.72697449 68.00437927 C-123.67181326 74.74513234 -120.07512645 78.71824046 -115.05078125 83.53515625 C-113.89185616 84.68134682 -113.89185616 84.68134682 -112.70951843 85.85069275 C-110.25765841 88.26917811 -107.78570561 90.66586721 -105.3125 93.0625 C-103.63859808 94.70628237 -101.96605672 96.35145146 -100.29492188 97.99804688 C-96.21221949 102.0148763 -92.11284684 106.0140535 -88 110 C-87.34 109.67 -86.68 109.34 -86 109 C-86.85495157 103.05331809 -92.12304037 99.40636632 -96.1875 95.375 C-97.03892578 94.50359375 -97.89035156 93.6321875 -98.76757812 92.734375 C-99.60095703 91.90164062 -100.43433594 91.06890625 -101.29296875 90.2109375 C-102.0511792 89.45087402 -102.80938965 88.69081055 -103.59057617 87.90771484 C-106.29706666 85.76479088 -108.70618181 84.95105042 -112 84 C-113 83 -113 83 -113.375 80.875 C-112.96916748 77.76361731 -112.39363073 77.00006227 -110.5 74.625 C-107.72048146 71.05691019 -107.64431564 68.53497562 -108 64 C-107.505 63.01 -107.505 63.01 -107 62 C-105.00045254 61.95745644 -102.99958364 61.95919217 -101 62 C-100 63 -100 63 -99.9375 66.0625 C-99.958125 67.031875 -99.97875 68.00125 -100 69 C-101.65 69.33 -103.3 69.66 -105 70 C-105.66 71.98 -106.32 73.96 -107 76 C-106.34 76.66 -105.68 77.32 -105 78 C-104.78085938 78.87527344 -104.56171875 79.75054687 -104.3359375 80.65234375 C-102.45258687 85.37173407 -99.27588121 88.11559795 -95.625 91.5625 C-87.382571 99.48123208 -87.382571 99.48123208 -84 104 C-80.37393686 103.42239702 -78.80507503 102.07551563 -76.25 99.5 C-66.1392025 90.23731216 -49.90608944 80.76048885 -36 81 C-36.10944715 76.54114074 -36.24017666 72.08315844 -36.375 67.625 C-36.4059375 66.35398437 -36.436875 65.08296875 -36.46875 63.7734375 C-36.50742188 62.56171875 -36.54609375 61.35 -36.5859375 60.1015625 C-36.6173584 58.98088379 -36.6487793 57.86020508 -36.68115234 56.70556641 C-36.73411203 53.85289588 -36.73411203 53.85289588 -39 52 C-39 50.33333333 -39 48.66666667 -39 47 C-41.46526886 44.53473114 -43.71481573 44.04846307 -47 43 C-48 42 -48 42 -48.0625 38.9375 C-48.041875 37.968125 -48.02125 36.99875 -48 36 C-45.125 35.375 -45.125 35.375 -42 35 C-39.53264116 37.46735884 -39.0927616 39.72171521 -38 43 C-36.13254668 45.17433143 -36.13254668 45.17433143 -33.4375 45.8125 C-31 47 -31 47 -30.0625 49.5 C-30.0315625 50.7375 -30.0315625 50.7375 -30 52 C-30.99 52.99 -30.99 52.99 -32 54 C-32.37173016 56.6182767 -32.37173016 56.6182767 -32.4140625 59.6640625 C-32.47207031 61.34628906 -32.47207031 61.34628906 -32.53125 63.0625 C-32.5621875 64.238125 -32.593125 65.41375 -32.625 66.625 C-32.66367188 67.80835937 -32.70234375 68.99171875 -32.7421875 70.2109375 C-32.83668845 73.14046691 -32.92224558 76.06998597 -33 79 C-30.03 79 -27.06 79 -24 79 C-24 63.16 -24 47.32 -24 31 C-24.99 30.67 -25.98 30.34 -27 30 C-26.814375 28.453125 -26.814375 28.453125 -26.625 26.875 C-27.06300414 22.34895722 -28.00069206 21.13818833 -31.26953125 18.21875 C-33.68678101 16.51630773 -36.15400016 15.72804647 -39 15 C-40 14 -40 14 -40.0625 10.9375 C-40.041875 9.968125 -40.02125 8.99875 -40 8 C-34.25 6.875 -34.25 6.875 -32 8 C-31.79375 9.010625 -31.5875 10.02125 -31.375 11.0625 C-29.79269894 17.28879035 -24.14415427 21.57056382 -19 25 C-18.75 27.5625 -18.75 27.5625 -19 30 C-19.33 30.33 -19.66 30.66 -20 31 C-20.12232644 32.47250645 -20.1777456 33.95065711 -20.20532227 35.42797852 C-20.22526749 36.36887833 -20.24521271 37.30977814 -20.26576233 38.27919006 C-20.28247482 39.30209641 -20.29918732 40.32500275 -20.31640625 41.37890625 C-20.3475779 42.941605 -20.3475779 42.941605 -20.37937927 44.53587341 C-20.44499057 47.87801247 -20.50381331 51.22023285 -20.5625 54.5625 C-20.60567422 56.82227418 -20.64928814 59.08204001 -20.69335938 61.34179688 C-20.80068367 66.89444421 -20.90242812 72.44717321 -21 78 C-18.69 78 -16.38 78 -14 78 C-14.02664734 77.27496277 -14.05329468 76.54992554 -14.08074951 75.80291748 C-14.32267561 68.92034216 -14.50461966 62.03841294 -14.62174606 55.15266037 C-14.68400052 51.61325383 -14.768176 48.07740008 -14.90527344 44.54003906 C-15.84475391 19.67058785 -15.84475391 19.67058785 -11.34570312 13.61132812 C-9.3384941 11.46089521 -7.22008633 9.78095172 -4.79394531 8.12988281 C-1.53738552 5.64733933 -0.8949521 3.92792364 0 0 Z " fill="#020403" transform="translate(262,51)"/>
<path d="M0 0 C1.98 0 3.96 0 6 0 C6.625 2.875 6.625 2.875 7 6 C5 8 5 8 2.20626831 8.85806274 C-3.62777877 10.93590373 -7.4958889 14.98069693 -11 20 C-12.33155192 24.59477926 -12.31160333 28.90488093 -12.1953125 33.6640625 C-12.20335907 34.93728363 -12.21140564 36.21050476 -12.21969604 37.52230835 C-12.2320804 40.87491661 -12.2018899 44.22141428 -12.15020752 47.57324219 C-12.10803462 51.00589126 -12.1229803 54.43826945 -12.1328125 57.87109375 C-12.14061414 64.58168888 -12.09218751 71.29007306 -12 78 C-10.94578857 78.1131958 -9.89157715 78.2263916 -8.80541992 78.34301758 C-1.38469293 79.17896093 5.65184807 80.06314949 12.6875 82.6875 C18.75335235 84.99248288 18.75335235 84.99248288 25 84 C28.6268936 81.33862756 31.76302247 78.11844032 35 75 C36.00714966 74.06699231 37.01497284 73.13471119 38.0234375 72.203125 C39.01695232 71.26181563 40.00916902 70.319134 41 69.375 C41.9075 68.51648438 42.815 67.65796875 43.75 66.7734375 C46.322445 63.60254176 47.01308507 60.91919103 48 57 C48.66 56.67 49.32 56.34 50 56 C50.05384521 53.70858714 50.09272087 51.41681812 50.125 49.125 C50.14820313 47.84882812 50.17140625 46.57265625 50.1953125 45.2578125 C50.35641524 41.91406662 50.35641524 41.91406662 48 40 C48.55555556 35.44444444 48.55555556 35.44444444 50 34 C52.4375 33.8125 52.4375 33.8125 55 34 C55.66 34.66 56.32 35.32 57 36 C56.44444444 40.55555556 56.44444444 40.55555556 55 42 C54.89953761 44.6149768 54.86127449 47.19779089 54.875 49.8125 C54.87113281 50.53759766 54.86726562 51.26269531 54.86328125 52.00976562 C54.86969335 55.5139779 55.09556211 58.62287869 56 62 C54.36912556 64.49427856 53.06092486 64.98265488 50.18896484 65.80029297 C46.53149529 67.17625418 44.75459394 68.78424778 42.0390625 71.5703125 C41.15605469 72.46621094 40.27304687 73.36210938 39.36328125 74.28515625 C38.00783203 75.69087891 38.00783203 75.69087891 36.625 77.125 C35.68973953 78.08034573 34.7535498 79.03478266 33.81640625 79.98828125 C31.53497707 82.31675021 29.26341988 84.65404307 27 87 C28.75244247 88.6483633 28.75244247 88.6483633 31 90 C34.70560346 89.64509392 36.50793955 87.88068271 39.09423828 85.32568359 C39.88831085 84.54752289 40.68238342 83.76936218 41.5005188 82.96762085 C42.34855072 82.11979034 43.19658264 81.27195984 44.0703125 80.3984375 C44.94775116 79.52861237 45.82518982 78.65878723 46.72921753 77.76260376 C49.05889998 75.44650078 51.38056121 73.12266384 53.70056152 70.796875 C55.12066937 69.37932284 56.54828201 67.96982193 57.97900391 66.56298828 C60.73070389 63.85414226 63.46502731 61.12884831 66.1953125 58.3984375 C67.04739288 57.56275238 67.89947327 56.72706726 68.77737427 55.86605835 C73.1683471 51.42321767 76.03392959 48.2569055 77 42 C77.66 42 78.32 42 79 42 C78.88601335 40.37419034 78.75844341 38.74932843 78.625 37.125 C78.55539062 36.22007813 78.48578125 35.31515625 78.4140625 34.3828125 C78.20431868 31.82058097 78.20431868 31.82058097 76 30 C76.55555556 25.44444444 76.55555556 25.44444444 78 24 C80.4375 23.8125 80.4375 23.8125 83 24 C83.66 24.66 84.32 25.32 85 26 C84.44444444 30.55555556 84.44444444 30.55555556 83 32 C82.90030159 33.74765452 82.87031955 35.4995103 82.875 37.25 C82.87113281 38.68085937 82.87113281 38.68085937 82.8671875 40.140625 C82.92419167 42.99800871 82.92419167 42.99800871 83.5703125 45.734375 C84 48 84 48 83 50 C82.01821777 50.18820313 81.03643555 50.37640625 80.02490234 50.5703125 C74.25822058 52.09826963 70.63852809 56.72852489 66.6015625 60.875 C65.72599701 61.75526855 64.85043152 62.63553711 63.94833374 63.54248047 C61.63466967 65.87383843 59.33253171 68.21584443 57.03515625 70.56323242 C54.68895368 72.95371063 52.32570133 75.3271206 49.96484375 77.703125 C46.52838949 81.17353122 43.09233441 84.64423918 39.67431641 88.1328125 C38.98705475 88.83293457 38.29979309 89.53305664 37.59170532 90.25439453 C35.92497474 91.92322556 35.92497474 91.92322556 35 94 C37.31 94.66 39.62 95.32 42 96 C45.10952214 92.9897748 48.20536605 89.96630528 51.28955078 86.93017578 C52.33932842 85.90044317 53.39267738 84.87433775 54.44970703 83.85205078 C55.97354217 82.3770473 57.48381245 80.88922783 58.9921875 79.3984375 C59.90339355 78.50817871 60.81459961 77.61791992 61.75341797 76.70068359 C64.12648532 73.84794821 65.0797673 71.56647398 66 68 C68.475 67.505 68.475 67.505 71 67 C71.350625 67.78375 71.70125 68.5675 72.0625 69.375 C74.61665844 72.83547272 76.88222494 73.14536744 81 74 C81.6875 76.3125 81.6875 76.3125 82 79 C80.875 80.875 80.875 80.875 79 82 C76.3125 81.6875 76.3125 81.6875 74 81 C73.67 78.69 73.34 76.38 73 74 C64.60342267 76.10904596 59.83680188 81.58557084 54 87.6875 C53.02592144 88.68670038 52.05066966 89.68475845 51.07421875 90.68164062 C48.70438701 93.11013157 46.3470582 95.54952614 44 98 C47.09900343 101.69624727 50.16389955 105.26298897 53.75 108.5 C66.59434374 121.24591965 77.4770015 141.59743513 78.09863281 159.90478516 C78.10122492 162.60533012 78.07175795 165.30049045 78 168 C78.64324219 167.99476318 79.28648437 167.98952637 79.94921875 167.98413086 C92.67874243 167.89447034 105.30766782 167.95474911 118 169 C118.33 168.01 118.66 167.02 119 166 C120.16273438 166.28230469 121.32546875 166.56460938 122.5234375 166.85546875 C126.17792059 167.3084573 127.90874583 166.81619409 130.8515625 164.61328125 C132.12862802 163.5354274 133.38631721 162.43425319 134.625 161.3125 C135.8862077 160.22315769 137.14920424 159.13588268 138.4140625 158.05078125 C139.01420166 157.52605225 139.61434082 157.00132324 140.23266602 156.46069336 C141.88941631 155.09139691 143.565822 153.92356273 145.37890625 152.7734375 C148.37176019 150.74846628 148.98954241 149.39881188 150 146 C151 145 151 145 153.5 144.875 C156 145 156 145 157 146 C157.04080783 147.99958364 157.04254356 150.00045254 157 152 C156.44965088 152.14405273 155.89930176 152.28810547 155.33227539 152.43652344 C149.01767894 154.28613847 144.52971952 157.14806465 139.4375 161.25 C138.73431641 161.79785156 138.03113281 162.34570312 137.30664062 162.91015625 C134.3994541 165.1941832 131.55475603 167.47509688 128.86767578 170.01757812 C128.18044434 170.66662109 127.49321289 171.31566406 126.78515625 171.984375 C126.17679932 172.58475586 125.56844238 173.18513672 124.94165039 173.80371094 C123 175 123 175 120.26342773 174.68847656 C119.14303101 174.34768066 119.14303101 174.34768066 118 174 C117.67 173.01 117.34 172.02 117 171 C116.24493164 171.00523682 115.48986328 171.01047363 114.71191406 171.01586914 C111.22461816 171.03691225 107.73733569 171.0497459 104.25 171.0625 C103.06277344 171.07087891 101.87554687 171.07925781 100.65234375 171.08789062 C93.04697478 171.10867032 85.56658475 170.77144376 78 170 C78 172.64 78 175.28 78 178 C85.80584812 177.89264527 93.61160107 177.78004222 101.41727352 177.66066074 C105.0414158 177.60539903 108.6655661 177.551974 112.28979492 177.50268555 C115.78467099 177.45508968 119.2794462 177.4027489 122.77420235 177.34705925 C124.76233823 177.31663587 126.75054809 177.29118018 128.73875427 177.26576233 C129.93992386 177.24581711 131.14109344 177.22587189 132.37866211 177.20532227 C133.44233505 177.18977798 134.506008 177.1742337 135.60191345 177.15821838 C137.95195928 177.26771448 137.95195928 177.26771448 139 176 C140.0725 176.020625 141.145 176.04125 142.25 176.0625 C145.80208608 176.00329857 147.85105168 175.52676282 151 174 C150.938125 172.824375 150.938125 172.824375 150.875 171.625 C151 169 151 169 153 167 C157.55555556 167.55555556 157.55555556 167.55555556 159 169 C159.1875 171.4375 159.1875 171.4375 159 174 C158.34 174.66 157.68 175.32 157 176 C156.236875 175.95875 155.47375 175.9175 154.6875 175.875 C150.99606475 176.04669466 149.64309652 177.49601382 147 180 C145.23676495 182.12603185 145.23676495 182.12603185 144 184 C139.125 183.125 139.125 183.125 138 182 C136.12985269 181.84700731 134.25413762 181.76161183 132.37866211 181.70288086 C131.17749252 181.66291489 129.97632294 181.62294891 128.73875427 181.58177185 C127.4314888 181.54318558 126.12422333 181.5045993 124.77734375 181.46484375 C123.43354464 181.42185259 122.08975908 181.37843613 120.74598694 181.33460999 C117.20332047 181.22021798 113.66049873 181.11162585 110.11761475 181.00421143 C106.50473136 180.89365734 102.89202332 180.77765926 99.27929688 180.66210938 C92.18636065 180.43605618 85.09324623 180.21612529 78 180 C78 182.97 78 185.94 78 189 C84.2296431 189.0493392 90.45917315 189.08569057 96.68896484 189.10986328 C98.8094277 189.11993751 100.92987661 189.13359733 103.05029297 189.15087891 C106.09345943 189.17506489 109.13644266 189.18646869 112.1796875 189.1953125 C113.60787308 189.21079636 113.60787308 189.21079636 115.06491089 189.22659302 C115.94567291 189.22674408 116.82643494 189.22689514 117.73388672 189.22705078 C118.51110077 189.231492 119.28831482 189.23593323 120.08908081 189.24050903 C122.24073389 189.16811395 122.24073389 189.16811395 124 187 C126.625 187.375 126.625 187.375 129 188 C129.33 188.99 129.66 189.98 130 191 C131.9765161 191.73336796 133.98335031 192.385534 136 193 C137.2408076 193.55287799 138.47117696 194.12963867 139.69140625 194.7265625 C140.32626953 195.0359375 140.96113281 195.3453125 141.61523438 195.6640625 C142.91966164 196.30777184 144.22173948 196.95626291 145.52148438 197.609375 C149.23880921 199.40942243 151.89815982 200.16318352 156 200 C156.66 200.66 157.32 201.32 158 202 C157.625 205.125 157.625 205.125 157 208 C154.625 208.125 154.625 208.125 152 208 C151.34 207.34 150.68 206.68 150 206 C150 205.01 150 204.02 150 203 C149.13117188 202.73445312 148.26234375 202.46890625 147.3671875 202.1953125 C144.05761944 201.02045423 141.19874841 199.56270801 138.125 197.875 C132.94473828 195.2075518 129.73121642 194.57546545 124 195 C123.34 194.34 122.68 193.68 122 193 C119.98331589 192.6320239 119.98331589 192.6320239 117.64208984 192.58935547 C116.74130707 192.54946503 115.84052429 192.50957458 114.91244507 192.46847534 C113.93844757 192.43505035 112.96445007 192.40162537 111.9609375 192.3671875 C110.46694931 192.30484421 110.46694931 192.30484421 108.94277954 192.24124146 C105.75380648 192.110228 102.56449784 191.99247249 99.375 191.875 C97.21611081 191.78863149 95.05725584 191.70140297 92.8984375 191.61328125 C87.59931542 191.3988641 82.29985784 191.19533677 77 191 C76.87098801 191.60600037 76.74197601 192.21200073 76.60905457 192.83636475 C76.43537857 193.63769836 76.26170258 194.43903198 76.08276367 195.26464844 C75.91250168 196.0562738 75.74223969 196.84789917 75.56681824 197.66351318 C74.47002664 202.18460821 72.62943944 206.44649156 70.92578125 210.765625 C69.92215598 214.27196138 69.92029251 215.57921145 71 219 C73.847892 222.70626535 77.24856226 225.89704871 80.5625 229.1875 C81.44486328 230.10208984 82.32722656 231.01667969 83.23632812 231.95898438 C88.23837518 236.96842543 91.79694851 240.41490032 99 241 C102.7400154 239.26851139 104.53257012 238.18232264 106.0625 234.3125 C106.371875 233.549375 106.68125 232.78625 107 232 C109.5 231.0625 109.5 231.0625 112 231 C114 233 114 233 114.25 235.5 C114 238 114 238 112 240 C110.329375 240.2165625 110.329375 240.2165625 108.625 240.4375 C104.9731949 241.00415941 103.72351034 241.67997267 101 244 C100.34 244 99.68 244 99 244 C98.67 245.32 98.34 246.64 98 248 C95.6875 248.6875 95.6875 248.6875 93 249 C90.45567096 247.39801505 90.02289397 246.08042903 89.19921875 243.18676758 C87.83347261 239.55747517 86.25413148 237.77905258 83.5 235.07421875 C82.613125 234.19572266 81.72625 233.31722656 80.8125 232.41210938 C79.884375 231.51298828 78.95625 230.61386719 78 229.6875 C77.071875 228.76904297 76.14375 227.85058594 75.1875 226.90429688 C70.97414082 222.44531255 70.97414082 222.44531255 66 219 C64.92474806 221.65228812 63.90543849 224.28368454 63 227 C67.69612876 231.82317574 72.41196612 236.62642323 77.1418457 241.41650391 C78.74766232 243.04742406 80.34895763 244.68280905 81.94555664 246.32275391 C84.2448443 248.68286928 86.56005581 251.02630951 88.87890625 253.3671875 C89.58648575 254.10057343 90.29406525 254.83395935 91.02308655 255.58956909 C95.18666871 259.755463 98.15302631 261.97819877 104 263 C106.63379708 259.34666857 108.46884894 256.51478398 109 252 C111.3125 251.3125 111.3125 251.3125 114 251 C115.875 252.1875 115.875 252.1875 117 254 C116.72963853 256.97397616 116.14553974 257.85446026 114 260 C112.824375 260.4021875 112.824375 260.4021875 111.625 260.8125 C108.34416488 262.29668732 107.07671646 264.09259696 105 267 C104.4225 267.763125 103.845 268.52625 103.25 269.3125 C102.8375 269.869375 102.425 270.42625 102 271 C100.35 270.67 98.7 270.34 97 270 C99.53842436 273.10251866 102.2340704 273.85384751 106 275 C107 276 107 276 107.5 278.1875 C106.80540964 282.09457075 104.72576893 283.08134639 101.69140625 285.44140625 C99.32087958 287.62579457 98.66415114 289.900628 98 293 C95.6875 293.625 95.6875 293.625 93 294 C92.01 293.34 91.02 292.68 90 292 C90.75 287.25 90.75 287.25 93 285 C94.98356483 284.28591666 96.98315437 283.61382258 99 283 C99.12179464 277.70661767 97.74127151 275.29874593 94.12280273 271.44165039 C92.40838884 269.7281831 90.67755088 268.03104529 88.93359375 266.34765625 C88.02497086 265.44752304 87.11634796 264.54738983 86.18019104 263.61997986 C83.77230284 261.23993568 81.35229858 258.87374951 78.92529297 256.51330566 C76.4477753 254.09738037 73.9873461 251.664186 71.52539062 249.23242188 C66.69913621 244.4722603 61.85615509 239.72964366 57 235 C55.88507922 235.94774577 54.77128419 236.89681596 53.65795898 237.84643555 C53.03759262 238.37480515 52.41722626 238.90317474 51.77806091 239.44755554 C49.45048828 241.4797847 47.27198942 243.65314486 45.0625 245.8125 C40.53392985 249.96316444 35.85236891 253.11968498 30.5 256.125 C29.80527588 256.51534424 29.11055176 256.90568848 28.39477539 257.30786133 C23.41465514 260 23.41465514 260 20 260 C20.33 276.17 20.66 292.34 21 309 C24.85938975 310.34513424 24.85938975 310.34513424 28 309 C28.33 307.35 28.66 305.7 29 304 C31.375 303.375 31.375 303.375 34 303 C34.66 303.66 35.32 304.32 36 305 C35.625 308.125 35.625 308.125 35 311 C34.278125 311.12375 33.55625 311.2475 32.8125 311.375 C28.6217322 312.30628173 25.73214045 313.37500206 22.4375 316.1875 C20 318 20 318 17.75 317.8125 C16 317 16 317 15 316 C14.95919217 314.00041636 14.95745644 311.99954746 15 310 C15.66 310 16.32 310 17 310 C17 294.16 17 278.32 17 262 C15.35 262.66 13.7 263.32 12 264 C11.67 271.26 11.34 278.52 11 286 C11.99 286.33 12.98 286.66 14 287 C14.125 289.375 14.125 289.375 14 292 C13.34 292.66 12.68 293.32 12 294 C7.44444444 293.44444444 7.44444444 293.44444444 6 292 C5.8125 289.5625 5.8125 289.5625 6 287 C6.66 286.34 7.32 285.68 8 285 C8.36952049 282.87139338 8.36952049 282.87139338 8.4140625 280.4296875 C8.47207031 279.08583984 8.47207031 279.08583984 8.53125 277.71484375 C8.5621875 276.77769531 8.593125 275.84054687 8.625 274.875 C8.68300781 273.45767578 8.68300781 273.45767578 8.7421875 272.01171875 C8.83661346 269.67467625 8.92218394 267.33764499 9 265 C7.68 265 6.36 265 5 265 C5.09344448 269.52104123 5.1995163 274.04154113 5.31738281 278.56201172 C5.35570301 280.10034021 5.39055056 281.63875925 5.421875 283.17724609 C5.46746059 285.38672276 5.5254634 287.59557448 5.5859375 289.8046875 C5.60326431 290.83914505 5.60326431 290.83914505 5.62094116 291.89450073 C5.64951022 295.8920154 5.64951022 295.8920154 8 299 C7.625 301.625 7.625 301.625 7 304 C2.25 305.125 2.25 305.125 0 304 C-3.5 303.75 -3.5 303.75 -7 304 C-7.66 304.66 -8.32 305.32 -9 306 C-12.125 305.625 -12.125 305.625 -15 305 C-15.04254356 303.00045254 -15.04080783 300.99958364 -15 299 C-14 298 -14 298 -11.5 297.875 C-9 298 -9 298 -8 299 C-6.65252916 299.23075082 -5.29622435 299.41153063 -3.9375 299.5625 C-2.638125 299.706875 -1.33875 299.85125 0 300 C1.16402727 296.50791819 1.21118508 293.60852228 1.31640625 289.92578125 C1.33718735 289.2419487 1.35796844 288.55811615 1.37937927 287.8535614 C1.44466154 285.6733079 1.50366017 283.49293595 1.5625 281.3125 C1.60570553 279.83267014 1.64932047 278.35285217 1.69335938 276.87304688 C1.80032083 273.24882378 1.90164823 269.62446811 2 266 C0.29650391 266.48533203 0.29650391 266.48533203 -1.44140625 266.98046875 C-20.45631644 271.70391778 -41.88713749 266.60083411 -59 258 C-60.25069108 257.2227253 -61.49821452 256.44032557 -62.7421875 255.65234375 C-65.72597578 253.70941933 -65.72597578 253.70941933 -68.11328125 254.453125 C-70.57427884 256.47083731 -72.90701515 258.52677991 -75.1875 260.75 C-76.06792969 261.59046875 -76.94835937 262.4309375 -77.85546875 263.296875 C-80.26644167 266.33584269 -80.86105129 268.15218967 -81 272 C-78.36688578 275.79168448 -75.3255013 276.75041074 -71 278 C-70 279 -70 279 -69.875 281.5 C-70 284 -70 284 -71 285 C-72.99958364 285.04080783 -75.00045254 285.04254356 -77 285 C-77.18175781 284.45730469 -77.36351562 283.91460937 -77.55078125 283.35546875 C-77.80214844 282.64003906 -78.05351562 281.92460937 -78.3125 281.1875 C-78.55613281 280.47980469 -78.79976563 279.77210938 -79.05078125 279.04296875 C-81.01714412 274.81083796 -83.74882018 273.56622414 -88 272 C-89 271 -89 271 -89.125 268.5 C-89 266 -89 266 -88 265 C-86.00041636 264.95919217 -83.99954746 264.95745644 -82 265 C-81.76539063 264.43796875 -81.53078125 263.8759375 -81.2890625 263.296875 C-79.69337 260.45364109 -77.71075457 258.51901873 -75.375 256.25 C-74.55773437 255.45078125 -73.74046875 254.6515625 -72.8984375 253.828125 C-72.27195312 253.22484375 -71.64546875 252.6215625 -71 252 C-71.66 251.01 -72.32 250.02 -73 249 C-75.81121293 250.28461836 -77.89444437 251.63468228 -80.1003418 253.79394531 C-80.67741379 254.35502991 -81.25448578 254.9161145 -81.8490448 255.49420166 C-82.76488091 256.40199371 -82.76488091 256.40199371 -83.69921875 257.328125 C-84.65269951 258.26806305 -84.65269951 258.26806305 -85.6254425 259.22698975 C-86.96533255 260.55239444 -88.30244743 261.88060971 -89.63696289 263.21142578 C-91.67858261 265.24113463 -93.73810248 267.25143475 -95.79882812 269.26171875 C-97.10010541 270.55353304 -98.40027366 271.84646566 -99.69921875 273.140625 C-100.31584885 273.73772278 -100.93247894 274.33482056 -101.5677948 274.95001221 C-105.06527816 278.48494478 -106.7854007 280.8042303 -107 286 C-105.88625 285.79375 -104.7725 285.5875 -103.625 285.375 C-102.42875 285.25125 -101.2325 285.1275 -100 285 C-99.34 285.66 -98.68 286.32 -98 287 C-98.55555556 291.55555556 -98.55555556 291.55555556 -100 293 C-102.4375 293.1875 -102.4375 293.1875 -105 293 C-105.66 292.34 -106.32 291.68 -107 291 C-107 290.01 -107 289.02 -107 288 C-108.134375 287.690625 -109.26875 287.38125 -110.4375 287.0625 C-114 286 -114 286 -115 285 C-115.1875 282.5625 -115.1875 282.5625 -115 280 C-113 278 -113 278 -110.30810547 277.28369141 C-105.86567454 275.55983149 -103.34348103 272.84610168 -100.0703125 269.4609375 C-99.43511688 268.82008209 -98.79992126 268.17922668 -98.14547729 267.51895142 C-96.12902715 265.4802022 -94.12697139 263.42795865 -92.125 261.375 C-90.75613676 259.98606355 -89.38635461 258.59803208 -88.015625 257.2109375 C-84.66634999 253.81768091 -81.32991132 250.41225647 -78 247 C-79.04874998 244.37812506 -79.64931313 243.20628639 -82.125 241.75 C-82.74375 241.5025 -83.3625 241.255 -84 241 C-87.67912106 244.57995337 -91.34468131 248.17306975 -94.99853516 251.77880859 C-96.24232726 253.00253432 -97.48969229 254.22263985 -98.74072266 255.43896484 C-100.5424935 257.19200044 -102.33084441 258.95782503 -104.1171875 260.7265625 C-104.95478104 261.53318832 -104.95478104 261.53318832 -105.80929565 262.35610962 C-109.14928498 265.69415983 -110.7826221 268.32126511 -112 273 C-113 274 -113 274 -115.5 274.125 C-118 274 -118 274 -119 273 C-119.07226502 271.14712498 -119.0838122 269.29166122 -119.0625 267.4375 C-119.05347656 266.42558594 -119.04445312 265.41367187 -119.03515625 264.37109375 C-119.02355469 263.58863281 -119.01195312 262.80617188 -119 262 C-120.32 261.34 -121.64 260.68 -123 260 C-123.1875 257.625 -123.1875 257.625 -123 255 C-120 253 -120 253 -117.875 253.3125 C-116 254 -116 254 -115 255 C-114.8386942 258.06481021 -115.01849759 260.05549278 -116 263 C-116 263.99 -116 264.98 -116 266 C-111.79063482 263.73702919 -108.62642851 260.862358 -105.33203125 257.45703125 C-104.81114426 256.92857101 -104.29025726 256.40011078 -103.75358582 255.8556366 C-102.10161173 254.17936399 -100.45631196 252.49677502 -98.8125 250.8125 C-96.63719874 248.58416571 -94.4554689 246.36242662 -92.26953125 244.14453125 C-91.77056839 243.62897171 -91.27160553 243.11341217 -90.75752258 242.58222961 C-89.54255774 241.34997383 -88.27547803 240.16950831 -87 239 C-86.34 239 -85.68 239 -85 239 C-85.4846875 238.42894531 -85.969375 237.85789062 -86.46875 237.26953125 C-99.88159233 221.04515082 -110 202.44401939 -110 181 C-124.52 181 -139.04 181 -154 181 C-154 181.99 -154 182.98 -154 184 C-153.04287109 184.30744141 -153.04287109 184.30744141 -152.06640625 184.62109375 C-150.82697266 185.02521484 -150.82697266 185.02521484 -149.5625 185.4375 C-148.73878906 185.70433594 -147.91507813 185.97117188 -147.06640625 186.24609375 C-145 187 -145 187 -144 188 C-143.8125 190.4375 -143.8125 190.4375 -144 193 C-146 195 -146 195 -148.4375 195.0625 C-151 194 -151 194 -152.6875 190.5625 C-153.120625 189.386875 -153.55375 188.21125 -154 187 C-156.22922955 184.77077045 -158.09135278 184.11871047 -161 183 C-162 182 -162 182 -162.125 179.5 C-162 177 -162 177 -161 176 C-158 175.875 -158 175.875 -155 176 C-154.67 176.33 -154.34 176.66 -154 177 C-152.65016252 177.12185143 -151.29425299 177.17766831 -149.93920898 177.20532227 C-149.07839218 177.22526749 -148.21757538 177.24521271 -147.33067322 177.26576233 C-146.39526199 177.28247482 -145.45985077 177.29918732 -144.49609375 177.31640625 C-143.06657127 177.3475779 -143.06657127 177.3475779 -141.60816956 177.37937927 C-138.5513559 177.44498177 -135.49445344 177.50380918 -132.4375 177.5625 C-130.37043337 177.60567506 -128.30337586 177.64928901 -126.23632812 177.69335938 C-121.15764405 177.80067401 -116.0788703 177.90191091 -111 178 C-111 175.36 -111 172.72 -111 170 C-117.7995704 170.09212018 -124.59877858 170.19940545 -131.39794922 170.31738281 C-133.71234669 170.35573401 -136.02680502 170.3905759 -138.34130859 170.421875 C-141.66265664 170.4673924 -144.98358341 170.52540843 -148.3046875 170.5859375 C-149.86411575 170.60326431 -149.86411575 170.60326431 -151.45504761 170.62094116 C-152.89631516 170.6507457 -152.89631516 170.6507457 -154.36669922 170.68115234 C-155.63910965 170.70113785 -155.63910965 170.70113785 -156.93722534 170.7215271 C-159.22186119 170.81776158 -159.22186119 170.81776158 -161 173 C-162.0725 172.95875 -163.145 172.9175 -164.25 172.875 C-168.79829116 173.02660971 -170.54912914 174.09813132 -174 177 C-174.7734375 178.36125 -174.7734375 178.36125 -175.5625 179.75 C-176.036875 180.4925 -176.51125 181.235 -177 182 C-179.625 182.375 -179.625 182.375 -182 182 C-183 181 -183 181 -183.125 178 C-183 175 -183 175 -182 174 C-181.154375 174.0825 -180.30875 174.165 -179.4375 174.25 C-174.79104121 173.91207572 -171.52251651 172.01476638 -168 169 C-166.7632402 166.92497624 -166.7632402 166.92497624 -166 165 C-164.02 165 -162.04 165 -160 165 C-160 165.66 -160 166.32 -160 167 C-143.5 167 -127 167 -110 167 C-110 164.69 -110 162.38 -110 160 C-116.65716038 160.09212435 -123.31395093 160.19941016 -129.97070312 160.31738281 C-132.23659682 160.35573271 -134.50255265 160.39057483 -136.76855469 160.421875 C-140.02040867 160.46739527 -143.2718326 160.52541076 -146.5234375 160.5859375 C-147.54118256 160.59748871 -148.55892761 160.60903992 -149.60751343 160.62094116 C-151.01874985 160.6507457 -151.01874985 160.6507457 -152.45849609 160.68115234 C-153.70425919 160.70113785 -153.70425919 160.70113785 -154.97518921 160.7215271 C-157.22613614 160.82335542 -157.22613614 160.82335542 -159 163 C-163.55555556 162.44444444 -163.55555556 162.44444444 -165 161 C-165.1875 158.5625 -165.1875 158.5625 -165 156 C-163 154 -163 154 -160.625 153.125 C-157.57951808 151.81979346 -156.0760641 150.57718302 -154 148 C-152.73215876 144.86649283 -152.73215876 144.86649283 -152 142 C-149.625 141.375 -149.625 141.375 -147 141 C-145 143 -145 143 -144.75 145.5 C-145 148 -145 148 -147 150 C-148.7015625 150.433125 -148.7015625 150.433125 -150.4375 150.875 C-154.42106112 151.75282134 -154.42106112 151.75282134 -157 156 C-141.16 156.33 -125.32 156.66 -109 157 C-108.67 154.03 -108.34 151.06 -108 148 C-105.52844734 139.03939077 -101.63148178 131.01341423 -97 123 C-96.32776371 121.66946605 -95.66018879 120.33655265 -95 119 C-100.14532687 113.75315924 -105.30634621 108.52213909 -110.47851562 103.30175781 C-112.23574198 101.52443035 -113.98935971 99.74352745 -115.73925781 97.95898438 C-118.256839 95.3928233 -120.78716634 92.83984856 -123.3203125 90.2890625 C-124.09867462 89.49005524 -124.87703674 88.69104797 -125.6789856 87.86782837 C-129.65668185 83.8885088 -132.4468812 81.47516487 -138 80 C-138.33 79.01 -138.66 78.02 -139 77 C-141.47923801 76.97314905 -143.9581884 76.95323453 -146.4375 76.9375 C-147.14455078 76.92912109 -147.85160156 76.92074219 -148.58007812 76.91210938 C-150.38693559 76.90346412 -152.19387603 76.94779989 -154 77 C-154.33 77.33 -154.66 77.66 -155 78 C-157.5 78.125 -157.5 78.125 -160 78 C-161 77 -161 77 -161.0625 73.9375 C-161.041875 72.968125 -161.02125 71.99875 -161 71 C-158.03 70.505 -158.03 70.505 -155 70 C-154.34 71.32 -153.68 72.64 -153 74 C-152.16855469 73.98839844 -151.33710938 73.97679688 -150.48046875 73.96484375 C-149.39378906 73.95582031 -148.30710938 73.94679688 -147.1875 73.9375 C-146.10855469 73.92589844 -145.02960938 73.91429688 -143.91796875 73.90234375 C-141 74 -141 74 -138 75 C-137.505 73.515 -137.505 73.515 -137 72 C-136.38640625 71.86722656 -135.7728125 71.73445313 -135.140625 71.59765625 C-131.29279362 70.52335296 -130.07865663 67.01018417 -128.1875 63.71484375 C-126.50853806 59.87642748 -126.70455915 57.1361719 -127 53 C-125 51 -125 51 -122.5 50.75 C-120 51 -120 51 -118 53 C-118.125 55.5 -118.125 55.5 -119 58 C-120.33333333 58.66666667 -121.66666667 59.33333333 -123 60 C-125.02052051 62.67230132 -126.19294965 64.58348663 -125.72697449 68.00437927 C-123.67181326 74.74513234 -120.07512645 78.71824046 -115.05078125 83.53515625 C-113.89185616 84.68134682 -113.89185616 84.68134682 -112.70951843 85.85069275 C-110.25765841 88.26917811 -107.78570561 90.66586721 -105.3125 93.0625 C-103.63859808 94.70628237 -101.96605672 96.35145146 -100.29492188 97.99804688 C-96.21221949 102.0148763 -92.11284684 106.0140535 -88 110 C-87.34 109.67 -86.68 109.34 -86 109 C-86.85495157 103.05331809 -92.12304037 99.40636632 -96.1875 95.375 C-97.03892578 94.50359375 -97.89035156 93.6321875 -98.76757812 92.734375 C-99.60095703 91.90164062 -100.43433594 91.06890625 -101.29296875 90.2109375 C-102.0511792 89.45087402 -102.80938965 88.69081055 -103.59057617 87.90771484 C-106.29706666 85.76479088 -108.70618181 84.95105042 -112 84 C-113 83 -113 83 -113.375 80.875 C-112.96916748 77.76361731 -112.39363073 77.00006227 -110.5 74.625 C-107.72048146 71.05691019 -107.64431564 68.53497562 -108 64 C-107.505 63.01 -107.505 63.01 -107 62 C-105.00045254 61.95745644 -102.99958364 61.95919217 -101 62 C-100 63 -100 63 -99.9375 66.0625 C-99.958125 67.031875 -99.97875 68.00125 -100 69 C-101.65 69.33 -103.3 69.66 -105 70 C-105.66 71.98 -106.32 73.96 -107 76 C-106.34 76.66 -105.68 77.32 -105 78 C-104.78085938 78.87527344 -104.56171875 79.75054687 -104.3359375 80.65234375 C-102.45258687 85.37173407 -99.27588121 88.11559795 -95.625 91.5625 C-87.382571 99.48123208 -87.382571 99.48123208 -84 104 C-80.37393686 103.42239702 -78.80507503 102.07551563 -76.25 99.5 C-66.1392025 90.23731216 -49.90608944 80.76048885 -36 81 C-36.10944715 76.54114074 -36.24017666 72.08315844 -36.375 67.625 C-36.4059375 66.35398437 -36.436875 65.08296875 -36.46875 63.7734375 C-36.50742188 62.56171875 -36.54609375 61.35 -36.5859375 60.1015625 C-36.6173584 58.98088379 -36.6487793 57.86020508 -36.68115234 56.70556641 C-36.73411203 53.85289588 -36.73411203 53.85289588 -39 52 C-39 50.33333333 -39 48.66666667 -39 47 C-41.46526886 44.53473114 -43.71481573 44.04846307 -47 43 C-48 42 -48 42 -48.0625 38.9375 C-48.041875 37.968125 -48.02125 36.99875 -48 36 C-45.125 35.375 -45.125 35.375 -42 35 C-39.53264116 37.46735884 -39.0927616 39.72171521 -38 43 C-36.13254668 45.17433143 -36.13254668 45.17433143 -33.4375 45.8125 C-31 47 -31 47 -30.0625 49.5 C-30.0315625 50.7375 -30.0315625 50.7375 -30 52 C-30.99 52.99 -30.99 52.99 -32 54 C-32.37173016 56.6182767 -32.37173016 56.6182767 -32.4140625 59.6640625 C-32.47207031 61.34628906 -32.47207031 61.34628906 -32.53125 63.0625 C-32.5621875 64.238125 -32.593125 65.41375 -32.625 66.625 C-32.66367188 67.80835937 -32.70234375 68.99171875 -32.7421875 70.2109375 C-32.83668845 73.14046691 -32.92224558 76.06998597 -33 79 C-30.03 79 -27.06 79 -24 79 C-24 63.16 -24 47.32 -24 31 C-24.99 30.67 -25.98 30.34 -27 30 C-26.814375 28.453125 -26.814375 28.453125 -26.625 26.875 C-27.06300414 22.34895722 -28.00069206 21.13818833 -31.26953125 18.21875 C-33.68678101 16.51630773 -36.15400016 15.72804647 -39 15 C-40 14 -40 14 -40.0625 10.9375 C-40.041875 9.968125 -40.02125 8.99875 -40 8 C-34.25 6.875 -34.25 6.875 -32 8 C-31.79375 9.010625 -31.5875 10.02125 -31.375 11.0625 C-29.79269894 17.28879035 -24.14415427 21.57056382 -19 25 C-18.75 27.5625 -18.75 27.5625 -19 30 C-19.33 30.33 -19.66 30.66 -20 31 C-20.12232644 32.47250645 -20.1777456 33.95065711 -20.20532227 35.42797852 C-20.22526749 36.36887833 -20.24521271 37.30977814 -20.26576233 38.27919006 C-20.28247482 39.30209641 -20.29918732 40.32500275 -20.31640625 41.37890625 C-20.3475779 42.941605 -20.3475779 42.941605 -20.37937927 44.53587341 C-20.44499057 47.87801247 -20.50381331 51.22023285 -20.5625 54.5625 C-20.60567422 56.82227418 -20.64928814 59.08204001 -20.69335938 61.34179688 C-20.80068367 66.89444421 -20.90242812 72.44717321 -21 78 C-18.69 78 -16.38 78 -14 78 C-14.02664734 77.27496277 -14.05329468 76.54992554 -14.08074951 75.80291748 C-14.32267561 68.92034216 -14.50461966 62.03841294 -14.62174606 55.15266037 C-14.68400052 51.61325383 -14.768176 48.07740008 -14.90527344 44.54003906 C-15.84475391 19.67058785 -15.84475391 19.67058785 -11.34570312 13.61132812 C-9.3384941 11.46089521 -7.22008633 9.78095172 -4.79394531 8.12988281 C-1.53738552 5.64733933 -0.8949521 3.92792364 0 0 Z M-85.61572266 114.36132812 C-102.9431395 134.87307801 -107.66480517 158.84318018 -106 185 C-103.70794201 208.03179795 -90.40924199 229.2556608 -73 244 C-51.76482792 260.25935661 -27.45030679 266.00055799 -1.03491211 262.62060547 C19.08169882 259.22027385 35.86579968 249.43047195 50 235 C50.69996094 234.28714844 51.39992188 233.57429687 52.12109375 232.83984375 C67.33317438 216.34032645 74.17388416 195.20990017 74.1875 173.125 C74.19974609 172.08730469 74.21199219 171.04960937 74.22460938 169.98046875 C74.23650462 163.69185169 73.67554736 158.05758212 72 152 C71.83363037 151.34999023 71.66726074 150.69998047 71.49584961 150.03027344 C67.66318416 135.44273631 61.07296851 123.30325475 51 112 C49.98679687 110.86304688 49.98679687 110.86304688 48.953125 109.703125 C33.70183452 93.56124821 12.27478379 83.46479317 -9.90625 82.76171875 C-40.31274029 82.24670523 -64.89127853 91.395074 -85.61572266 114.36132812 Z " fill="#00EAEA" transform="translate(262,51)"/>
<path d="M0 0 C0.74537731 2.65906167 1.4904642 5.31820331 2.23486328 7.97753906 C2.87304224 10.25352534 3.51336269 12.52891217 4.15576172 14.80371094 C5.62556847 20.02067681 7.07806558 25.23618322 8.40234375 30.4921875 C8.71619019 31.70962646 8.71619019 31.70962646 9.03637695 32.95166016 C9.41754523 34.4399713 9.78546467 35.93176462 10.13745117 37.42724609 C11.39051223 42.24778419 13.28494508 44.74495971 17 48 C21.02113456 52.80302183 22.3369911 55.34112475 22.296875 61.5390625 C21.80038608 65.65469436 19.97721367 70.02278633 17 73 C16.90492861 74.75565175 16.81600748 76.51190145 16.76171875 78.26928711 C16.41449779 88.41293624 15.02495646 96.04941405 8 103.8125 C0.94081127 110.30741427 -6.55863099 113.23011801 -16.125 113.5625 C-25.95692253 113.14066834 -32.87745283 110.03927467 -40.01953125 103.2890625 C-46.95308138 95.27513671 -48.37987421 86.81411133 -48.2734375 76.54296875 C-47.51119015 66.66642094 -41.51135918 60.17300724 -34.5 53.6875 C-27.3547571 48.86446104 -21.31362368 48.56709431 -12.93945312 48.56054688 C-7.34081879 48.43076239 -4.36609969 47.55939732 0 44 C-7.20355546 41.45942513 -14.49649174 39.5112061 -21.89993286 37.64025879 C-25.35975613 36.7653407 -28.81659477 35.87879663 -32.2734375 34.9921875 C-33.28734306 34.73236084 -33.28734306 34.73236084 -34.32173157 34.46728516 C-42.24857657 32.43066778 -50.13079668 30.24749065 -58 28 C-59.39712454 27.60282631 -60.79426001 27.20569109 -62.19140625 26.80859375 C-65.46235871 25.87732221 -68.73170318 24.94055487 -72 24 C-72 21 -72 21 -70.453125 19.203125 C-51.4089284 2.31997198 -25.18982612 -5.5809627 0 0 Z " fill="#5B491D" transform="translate(261,143)"/>
<path d="M0 0 C5.70559563 1.25662729 10.61798237 2.96845767 15.8125 5.625 C16.50609619 5.97763916 17.19969238 6.33027832 17.91430664 6.69360352 C36.738444 16.50551352 48.40772257 30.87390938 57.41796875 49.6953125 C58.16501519 52.65341585 57.53503789 53.42308274 56 56 C54.58261108 57.65789795 54.58261108 57.65789795 52.92724609 59.29980469 C52.30675385 59.92014587 51.6862616 60.54048706 51.04696655 61.17962646 C50.37920197 61.83706848 49.71143738 62.4945105 49.0234375 63.171875 C48.33819 63.8542926 47.6529425 64.53671021 46.94692993 65.23980713 C44.76094155 67.41461598 42.56809571 69.58236072 40.375 71.75 C38.89016745 73.2247999 37.40578694 74.70005506 35.921875 76.17578125 C32.2864709 79.78915448 28.64490176 83.39620853 25 87 C22.81986606 83.72979909 22.03833607 81.03019227 21 77.25 C20.67 76.05890625 20.34 74.8678125 20 73.640625 C19.67 72.43921875 19.34 71.2378125 19 70 C18.62617188 68.78957031 18.25234375 67.57914062 17.8671875 66.33203125 C17.10015681 63.38483674 16.87238286 61.41948056 17.125 58.4375 C17.24888738 53.89238165 15.8858162 51.56483177 13 48 C11.03365553 45.0504833 10.7696969 43.57633095 10.36230469 40.18554688 C9.57529169 35.43801293 8.00983559 30.85085873 6.625 26.25 C4.80737399 20.15017033 2.99031416 14.05098347 1.2734375 7.921875 C1.02770996 7.0462793 0.78198242 6.17068359 0.52880859 5.26855469 C0 3 0 3 0 0 Z " fill="#5B491D" transform="translate(265,144)"/>
<path d="M0 0 C0.65411865 0.18175781 1.3082373 0.36351562 1.98217773 0.55078125 C9.99692586 2.75959798 18.0522018 4.77377023 26.12695312 6.75 C32.47886998 8.32059631 38.75276618 10.05361697 45 12 C43.36743754 16.18167326 40.2913425 18.94467643 37.14453125 22.015625 C36.56466965 22.59028503 35.98480804 23.16494507 35.38737488 23.75701904 C33.5337814 25.59284019 31.6736614 27.42185415 29.8125 29.25 C20.04921445 38.78932919 20.04921445 38.78932919 10.8762207 48.88574219 C6.74903471 53.53654644 2.29641969 57.88951617 -2.09936523 62.28466797 C-3.83150876 64.01903314 -5.5554531 65.76129591 -7.27929688 67.50390625 C-8.37972022 68.60725787 -9.48061416 69.71014039 -10.58203125 70.8125 C-11.09659378 71.33424805 -11.61115631 71.85599609 -12.14131165 72.39355469 C-15.77113122 76 -15.77113122 76 -18 76 C-23.02372763 59.69810472 -21.93386184 39.54865989 -15 24 C-14.73767578 23.39027344 -14.47535156 22.78054687 -14.20507812 22.15234375 C-10.58605281 13.83813211 -5.94858093 6.83777446 0 0 Z " fill="#5A491D" transform="translate(184,169)"/>
<path d="M0 0 C6.61868195 12.63780301 3.96744744 31.96912628 0.1875 45.2421875 C-3.39099245 56.5662327 -8.47950445 67.47950445 -17 76 C-23.31397472 75.5666047 -29.44730272 73.7421301 -35.5625 72.1875 C-36.62210937 71.92050293 -37.68171875 71.65350586 -38.7734375 71.37841797 C-46.56125722 69.40174761 -54.30191652 67.30400386 -62 65 C-62 61.22021014 -60.63282698 60.27986265 -58.06539917 57.69213867 C-57.48565338 57.12317871 -56.90590759 56.55421875 -56.30859375 55.96801758 C-55.40151169 55.0602784 -55.40151169 55.0602784 -54.47610474 54.13420105 C-52.47026378 52.1304545 -50.45399632 50.13754963 -48.4375 48.14453125 C-47.04679288 46.75941774 -45.65674548 45.37364155 -44.26733398 43.98722839 C-40.60451807 40.33587964 -36.93278299 36.6936281 -33.25915527 33.05316162 C-29.5137246 29.33839138 -25.77674761 25.61513875 -22.0390625 21.89257812 C-14.70098465 14.58669744 -7.35346196 7.29039388 0 0 Z " fill="#5B491D" transform="translate(324,202)"/>
<path d="M0 0 C0.19110352 0.76965088 0.38220703 1.53930176 0.57910156 2.33227539 C4.49525529 18.08996374 8.43846058 33.82793238 12.80126953 49.46899414 C14.81803919 56.69949257 16.81368305 63.93498414 18.75 71.1875 C18.96068115 71.96512695 19.1713623 72.74275391 19.38842773 73.54394531 C20.5749293 78.02163986 21.43956768 82.4008 22 87 C0.47089201 81.57009223 -17.08359037 67.63276995 -28.5234375 48.7109375 C-34.30241562 38.10085598 -34.30241562 38.10085598 -33.72290039 34.07501221 C-32.86622453 31.6160111 -31.80744825 30.43907648 -29.96484375 28.60839844 C-29.32748291 27.9680365 -28.69012207 27.32767456 -28.03344727 26.66790771 C-27.34178467 25.98859192 -26.65012207 25.30927612 -25.9375 24.609375 C-25.23101318 23.90476135 -24.52452637 23.20014771 -23.79663086 22.47418213 C-22.30378828 20.98805776 -20.80735432 19.50553356 -19.30761719 18.02636719 C-17.00192487 15.75189881 -14.70713951 13.46686718 -12.4140625 11.1796875 C-10.96416441 9.73895635 -9.51366417 8.29883089 -8.0625 6.859375 C-7.3708374 6.17196228 -6.6791748 5.48454956 -5.96655273 4.77630615 C-5.32919189 4.14855286 -4.69183105 3.52079956 -4.03515625 2.87402344 C-3.4719165 2.31761169 -2.90867676 1.76119995 -2.32836914 1.18792725 C-1 0 -1 0 0 0 Z " fill="#5A491D" transform="translate(202,216)"/>
<path d="M0 0 C7.18951615 0.6687922 13.96807767 2.40263638 20.9375 4.25 C22.14535156 4.56646484 23.35320312 4.88292969 24.59765625 5.20898438 C31.5706241 7.04928049 38.50362103 8.98173143 45.40332031 11.07836914 C53.44866028 13.49216842 61.59872915 15.52137671 69.73828125 17.58984375 C70.84945312 17.8734375 71.960625 18.15703125 73.10546875 18.44921875 C74.09699951 18.70018311 75.08853027 18.95114746 76.11010742 19.2097168 C79.11578769 20.03166383 82.05316485 20.98874263 85 22 C80.64276643 32.36562933 66.83356842 37.93126123 57 42 C43.10589942 47.36475033 27.69330003 47.0225228 13 46 C11 45 11 45 10.28564453 42.92138672 C10.07020996 42.01662598 9.85477539 41.11186523 9.6328125 40.1796875 C9.38877686 39.17599121 9.14474121 38.17229492 8.89331055 37.13818359 C8.63976807 36.06133301 8.38622559 34.98448242 8.125 33.875 C7.59343981 31.67684324 7.06088828 29.47892596 6.52734375 27.28125 C6.26808105 26.20617187 6.00881836 25.13109375 5.74169922 24.0234375 C4.50871672 18.99734954 3.13950243 14.01136324 1.76171875 9.0234375 C1.00701558 6.02784644 0.46300418 3.05307706 0 0 Z " fill="#5B491D" transform="translate(217,259)"/>
<path d="M0 0 C0.10957031 0.80824219 0.21914062 1.61648437 0.33203125 2.44921875 C0.49058594 3.51785156 0.64914063 4.58648437 0.8125 5.6875 C1.03873047 7.27111328 1.03873047 7.27111328 1.26953125 8.88671875 C2.24642395 13.05026679 3.7777726 15.93055103 7 18.75 C11.52939144 20.63724643 16.13512703 20.75292239 21 21 C21.64787553 29.45837498 20.68424477 36.65995966 15.046875 43.30078125 C9.01637447 49.06771095 2.97743539 51.86046944 -5.3125 52.5625 C-12.23524874 52.28316102 -19.06466054 48.84900594 -23.9921875 44.06640625 C-25.52424811 42.11131398 -26.78923992 40.16662329 -28 38 C-28.61875 36.906875 -29.2375 35.81375 -29.875 34.6875 C-32.00083746 27.71947721 -32.01973882 21.45259595 -29 14.75 C-22.46753191 3.1428745 -12.85275728 -0.62753064 0 0 Z " fill="#000303" transform="translate(250,198)"/>
<path d="M0 0 C5.00230198 2.45567552 8.49851535 5.9970307 11 11 C11.8353876 17.60093153 10.54541083 22.4184697 7 28 C6.505 28.495 6.505 28.495 6 29 C5.90492861 30.75565175 5.81600748 32.51190145 5.76171875 34.26928711 C5.41449779 44.41293624 4.02495646 52.04941405 -3 59.8125 C-10.05918873 66.30741427 -17.55863099 69.23011801 -27.125 69.5625 C-36.95692253 69.14066834 -43.87745283 66.03927467 -51.01953125 59.2890625 C-57.95308138 51.27513671 -59.37987421 42.81411133 -59.2734375 32.54296875 C-58.51119015 22.66642094 -52.51135918 16.17300724 -45.5 9.6875 C-38.3547571 4.86446104 -32.31362368 4.56709431 -23.93945312 4.56054688 C-14.75226837 4.34757457 -9.6950691 -1.43042003 0 0 Z M-48 21 C-51.98466817 26.64975898 -53.90705593 32.19156937 -53.54296875 39.12890625 C-52.17583224 46.35800937 -48.89444982 52.96969741 -43.0625 57.5625 C-35.60651494 62.34958132 -29.45486178 64.13909326 -20.7421875 62.6015625 C-13.41679904 60.63621438 -7.48631771 56.0970773 -3.546875 49.60546875 C-0.92444535 43.74193766 -0.51317107 38.35582216 -1 32 C-1.73605469 31.96261719 -2.47210938 31.92523438 -3.23046875 31.88671875 C-13.6066838 31.18766067 -13.6066838 31.18766067 -17 28 C-20.67202178 22.67368855 -21.70478757 17.37658857 -22 11 C-33.02165558 10.46187215 -40.46862133 12.63355214 -48 21 Z " fill="#00F6F6" transform="translate(272,187)"/>
<path d="M0 0 C5.00230198 2.45567552 8.49851535 5.9970307 11 11 C11.82137321 17.49019485 10.82434617 22.65556672 7 28 C3.16354896 31.93482158 -0.20345748 32.30717934 -5.5 32.5 C-10.79654252 32.30717934 -14.16354896 31.93482158 -18 28 C-21.25594811 23.44988955 -22.78157235 18.85180813 -22.51953125 13.2421875 C-21.31339153 8.03674241 -17.64414502 4.5032183 -13.8125 1 C-9.23147475 -0.62880898 -4.79686993 -0.63487984 0 0 Z " fill="#F1F3F9" transform="translate(272,187)"/>
<path d="M0 0 C12.52941176 0 12.52941176 0 17 4 C18.6196057 7.2392114 18.22623755 10.75704381 18.25 14.3125 C18.270625 15.07240234 18.29125 15.83230469 18.3125 16.61523438 C18.34449345 21.21829164 18.0675507 24.31755739 15 28 C11 30 11 30 0 30 C0 20.1 0 10.2 0 0 Z " fill="#D9B55A" transform="translate(212,379)"/>
<path d="M0 0 C12 0 12 0 17 3 C18.59387042 6.18774083 18.52663137 9.53927959 18 13 C16 15.5 16 15.5 14 17 C15.41807378 21.47238653 17.11304374 25.71146306 19 30 C17.35 30 15.7 30 14 30 C13.16180842 28.37750059 12.3295884 26.75191503 11.5 25.125 C11.0359375 24.22007812 10.571875 23.31515625 10.09375 22.3828125 C9 20 9 20 9 18 C7.35 18 5.7 18 4 18 C4 21.96 4 25.92 4 30 C2.68 30 1.36 30 0 30 C0 20.1 0 10.2 0 0 Z " fill="#D4B058" transform="translate(237,379)"/>
<path d="M0 0 C1.65 0 3.3 0 5 0 C7.64 6.6 10.28 13.2 13 20 C13.33 13.4 13.66 6.8 14 0 C15.32 0 16.64 0 18 0 C18 9.9 18 19.8 18 30 C16.35 30 14.7 30 13 30 C12.67386719 29.21496094 12.34773438 28.42992187 12.01171875 27.62109375 C11.57472656 26.57050781 11.13773437 25.51992188 10.6875 24.4375 C10.04361328 22.88869141 10.04361328 22.88869141 9.38671875 21.30859375 C7.94320337 17.86448805 6.47104471 14.43243765 5 11 C4.67 17.27 4.34 23.54 4 30 C2.68 30 1.36 30 0 30 C0 20.1 0 10.2 0 0 Z " fill="#D0AD57" transform="translate(286,423)"/>
<path d="M0 0 C1.65 0 3.3 0 5 0 C7.30553879 5.86188308 9.11235724 11.71655474 10.6875 17.8125 C10.91244141 18.65748047 11.13738281 19.50246094 11.36914062 20.37304688 C13 26.61393427 13 26.61393427 13 30 C11.68 30 10.36 30 9 30 C8.34 27.36 7.68 24.72 7 22 C4.03 22 1.06 22 -2 22 C-2.33 24.31 -2.66 26.62 -3 29 C-4.65 29.33 -6.3 29.66 -8 30 C-7.2361715 26.68584558 -6.46263278 23.37402714 -5.6875 20.0625 C-5.47416016 19.13630859 -5.26082031 18.21011719 -5.04101562 17.25585938 C-3.66032218 11.3827604 -2.02149853 5.68497045 0 0 Z " fill="#D0AD56" transform="translate(144,379)"/>
<path d="M0 0 C1.65 0 3.3 0 5 0 C8.82299784 7.07962563 11.37301072 14.41091986 14 22 C14.33 14.74 14.66 7.48 15 0 C15.99 0 16.98 0 18 0 C18 9.9 18 19.8 18 30 C16.35 30 14.7 30 13 30 C10.36 23.07 7.72 16.14 5 9 C4.67 15.93 4.34 22.86 4 30 C2.68 30 1.36 30 0 30 C0 20.1 0 10.2 0 0 Z " fill="#DDB85C" transform="translate(335,379)"/>
<path d="M0 0 C6.23715557 1.33540962 9.46202893 4.95814238 13.734375 9.37890625 C14.45361145 10.10617416 15.1728479 10.83344208 15.91387939 11.58274841 C18.20224926 13.90004701 20.47652788 16.2305919 22.75 18.5625 C25.04031885 20.89530328 27.33344688 23.22527857 29.62896729 25.55296326 C31.05490707 27.00063197 32.47733829 28.45176646 33.89593506 29.90663147 C34.53710266 30.56078537 35.17827026 31.21493927 35.83886719 31.88891602 C36.40257019 32.46690445 36.96627319 33.04489288 37.54705811 33.64039612 C38.97548713 35.10632181 38.97548713 35.10632181 41 36 C40.67 37.65 40.34 39.3 40 41 C36.25793898 41 35.85588846 40.23840904 33.26293945 37.66699219 C32.52239822 36.93913513 31.78185699 36.21127808 31.01887512 35.46136475 C30.22502914 34.66458313 29.43118317 33.86780151 28.61328125 33.046875 C27.79627243 32.23510803 26.97926361 31.42334106 26.13749695 30.5869751 C24.409738 28.86564826 22.68586623 27.14041235 20.96557617 25.41162109 C18.3250585 22.76259895 15.66646111 20.1327374 13.00585938 17.50390625 C11.33220193 15.83186089 9.65963845 14.15871966 7.98828125 12.484375 C7.18836258 11.69569031 6.38844391 10.90700562 5.56428528 10.09442139 C4.46765816 8.98372284 4.46765816 8.98372284 3.34887695 7.85058594 C2.70062454 7.20216736 2.05237213 6.55374878 1.38447571 5.88568115 C0 4 0 4 0 0 Z " fill="#000606" transform="translate(131,126)"/>
<path d="M0 0 C5.94 0 11.88 0 18 0 C18 1.32 18 2.64 18 4 C13.71 4 9.42 4 5 4 C5 6.97 5 9.94 5 13 C8.96 13 12.92 13 17 13 C17 13.99 17 14.98 17 16 C12.71 16 8.42 16 4 16 C4 19.63 4 23.26 4 27 C8.62 27 13.24 27 18 27 C18 27.99 18 28.98 18 30 C12.06 30 6.12 30 0 30 C0 20.1 0 10.2 0 0 Z " fill="#CBA954" transform="translate(187,423)"/>
<path d="M0 0 C2.875 1.1875 2.875 1.1875 5 3 C5.8125 5.6875 5.8125 5.6875 6 8 C4.68 8 3.36 8 2 8 C0.25 6 0.25 6 -1 4 C-2.98 4.33 -4.96 4.66 -7 5 C-7.21790719 7.883975 -7.21790719 7.883975 -6 11 C-3.80664709 12.3212444 -1.63617244 13.18351504 0.7734375 14.04296875 C3.17273612 15.07424623 4.42565712 15.92405261 6 18 C6.4761505 22.28535449 6.69868227 24.7296686 4.625 28.5 C0.523139 30.84392057 -3.39997495 30.876903 -8 30 C-11.125 27.6875 -11.125 27.6875 -13 25 C-13 24.01 -13 23.02 -13 22 C-10.625 22.3125 -10.625 22.3125 -8 23 C-7.34 23.99 -6.68 24.98 -6 26 C-2.95804573 26.33340471 -2.95804573 26.33340471 0 26 C1.29633621 24.93354885 1.29633621 24.93354885 1.0625 22.4375 C1.041875 21.633125 1.02125 20.82875 1 20 C0.09507812 19.54560547 0.09507812 19.54560547 -0.828125 19.08203125 C-9.67072525 14.44679725 -9.67072525 14.44679725 -12 10 C-12 6.22089384 -11.83289714 3.99306967 -9.375 1.0625 C-6.04422241 -0.42758471 -3.61410271 -0.38043186 0 0 Z " fill="#D4B158" transform="translate(224,423)"/>
<path d="M0 0 C5.94 0 11.88 0 18 0 C18 1.32 18 2.64 18 4 C13.38 4 8.76 4 4 4 C4 6.97 4 9.94 4 13 C7.96 13 11.92 13 16 13 C16 13.99 16 14.98 16 16 C12.04 16 8.08 16 4 16 C4 19.63 4 23.26 4 27 C8.29 27 12.58 27 17 27 C17 27.99 17 28.98 17 30 C11.39 30 5.78 30 0 30 C0 20.1 0 10.2 0 0 Z " fill="#D9B45A" transform="translate(311,379)"/>
<path d="M0 0 C4.70588235 0.70588235 4.70588235 0.70588235 6 2 C6.1875 4.4375 6.1875 4.4375 6 7 C4 9 4 9 0.5625 9.875 C-3.42106112 10.75282134 -3.42106112 10.75282134 -6 15 C17.265 15.495 17.265 15.495 41 16 C41 16.66 41 17.32 41 18 C25.49 18 9.98 18 -6 18 C-6.66 19.32 -7.32 20.64 -8 22 C-12.875 21.125 -12.875 21.125 -14 20 C-14.1875 17.5625 -14.1875 17.5625 -14 15 C-12 13 -12 13 -9.625 12.125 C-6.57951808 10.81979346 -5.0760641 9.57718302 -3 7 C-1.79950593 3.89992799 -1.79950593 3.89992799 -1 1 C-0.67 0.67 -0.34 0.34 0 0 Z " fill="#00F8F8" transform="translate(111,192)"/>
<path d="M0 0 C2.9375 1.8125 2.9375 1.8125 5 4 C5 4.99 5 5.98 5 7 C2.13275314 6.42655063 1.1385485 6.1385485 -1 4 C-3.5 3.66666667 -3.5 3.66666667 -6 4 C-8.36568222 6.36568222 -8.25571704 6.85232226 -8.265625 10.0625 C-8.26820313 10.85914063 -8.27078125 11.65578125 -8.2734375 12.4765625 C-8.26570313 13.30929687 -8.25796875 14.14203125 -8.25 15 C-8.25773437 15.83273437 -8.26546875 16.66546875 -8.2734375 17.5234375 C-8.26957031 18.71839844 -8.26957031 18.71839844 -8.265625 19.9375 C-8.26336914 20.66839844 -8.26111328 21.39929688 -8.25878906 22.15234375 C-8.15448561 24.24697364 -8.15448561 24.24697364 -6 26 C-2.41656024 26.16677282 -2.41656024 26.16677282 1 26 C1.33 23.36 1.66 20.72 2 18 C0.02 18 -1.96 18 -4 18 C-4 17.01 -4 16.02 -4 15 C-0.7 15 2.6 15 6 15 C6.43743199 24.76931447 6.43743199 24.76931447 3 29 C0.70013269 30.14993366 -0.81469088 30.2316929 -3.375 30.3125 C-4.53128906 30.36857422 -4.53128906 30.36857422 -5.7109375 30.42578125 C-8 30 -8 30 -10.25390625 28.66796875 C-13.06415192 24.37401396 -12.61758916 20.016354 -12.5625 15 C-12.59827148 13.50339844 -12.59827148 13.50339844 -12.63476562 11.9765625 C-12.62015687 4.7111411 -12.62015687 4.7111411 -9.68359375 1.34375 C-6.13978445 -0.43073384 -3.9175139 -0.55964484 0 0 Z " fill="#DFB95C" transform="translate(323,423)"/>
<path d="M0 0 C2.5 0.125 2.5 0.125 3.5 1.125 C3.54080783 3.12458364 3.54254356 5.12545254 3.5 7.125 C2.94965088 7.26905273 2.39930176 7.41310547 1.83227539 7.56152344 C-4.48232106 9.41113847 -8.97028048 12.27306465 -14.0625 16.375 C-14.76568359 16.92285156 -15.46886719 17.47070312 -16.19335938 18.03515625 C-19.1005459 20.3191832 -21.94524397 22.60009688 -24.63232422 25.14257812 C-25.31955566 25.79162109 -26.00678711 26.44066406 -26.71484375 27.109375 C-27.32320068 27.70975586 -27.93155762 28.31013672 -28.55834961 28.92871094 C-30.5 30.125 -30.5 30.125 -33.23657227 29.81347656 C-33.98350342 29.5862793 -34.73043457 29.35908203 -35.5 29.125 C-35.83 28.135 -36.16 27.145 -36.5 26.125 C-42.77 26.125 -49.04 26.125 -55.5 26.125 C-51.12703266 23.93851633 -47.9791784 23.89137929 -43.25 24 C-42.50492187 24.00902344 -41.75984375 24.01804688 -40.9921875 24.02734375 C-39.16131941 24.05081642 -37.33061762 24.08668475 -35.5 24.125 C-35.17 23.135 -34.84 22.145 -34.5 21.125 C-33.33726562 21.40730469 -32.17453125 21.68960938 -30.9765625 21.98046875 C-27.32207941 22.4334573 -25.59125417 21.94119409 -22.6484375 19.73828125 C-21.37137198 18.6604274 -20.11368279 17.55925319 -18.875 16.4375 C-17.6137923 15.34815769 -16.35079576 14.26088268 -15.0859375 13.17578125 C-14.48579834 12.65105225 -13.88565918 12.12632324 -13.26733398 11.58569336 C-11.61058369 10.21639691 -9.934178 9.04856273 -8.12109375 7.8984375 C-5.12823981 5.87346628 -4.51045759 4.52381188 -3.5 1.125 C-2.5 0.125 -2.5 0.125 0 0 Z " fill="#00F0F0" transform="translate(415.5,195.875)"/>
<path d="M0 0 C2.625 0.375 2.625 0.375 5 1 C5.495 2.485 5.495 2.485 6 4 C7.9765161 4.73336796 9.98335031 5.385534 12 6 C13.2408076 6.55287799 14.47117696 7.12963867 15.69140625 7.7265625 C16.32626953 8.0359375 16.96113281 8.3453125 17.61523438 8.6640625 C18.91966164 9.30777184 20.22173948 9.95626291 21.52148438 10.609375 C25.23880921 12.40942243 27.89815982 13.16318352 32 13 C32.66 13.66 33.32 14.32 34 15 C33.625 18.125 33.625 18.125 33 21 C30.625 21.125 30.625 21.125 28 21 C27.34 20.34 26.68 19.68 26 19 C26 18.01 26 17.02 26 16 C25.13117188 15.73445312 24.26234375 15.46890625 23.3671875 15.1953125 C20.05761944 14.02045423 17.19874841 12.56270801 14.125 10.875 C8.94473828 8.2075518 5.73121642 7.57546545 0 8 C-0.66 7.34 -1.32 6.68 -2 6 C-4.5864497 5.6612606 -4.5864497 5.6612606 -7.59375 5.65625 C-8.70621094 5.62660156 -9.81867188 5.59695312 -10.96484375 5.56640625 C-12.13144531 5.54449219 -13.29804688 5.52257812 -14.5 5.5 C-16.80226628 5.45675301 -19.10439491 5.40509724 -21.40625 5.34375 C-22.43041016 5.32505859 -23.45457031 5.30636719 -24.50976562 5.28710938 C-27 5 -27 5 -29 3 C-27.78884521 2.970271 -27.78884521 2.970271 -26.55322266 2.93994141 C-22.91014125 2.84494101 -19.26765314 2.73516088 -15.625 2.625 C-14.35398437 2.5940625 -13.08296875 2.563125 -11.7734375 2.53125 C-10.56171875 2.49257812 -9.35 2.45390625 -8.1015625 2.4140625 C-6.98088379 2.3826416 -5.86020508 2.3512207 -4.70556641 2.31884766 C-1.85289588 2.26588797 -1.85289588 2.26588797 0 0 Z " fill="#00F0F0" transform="translate(386,238)"/>
<path d="M0 0 C2.64 0 5.28 0 8 0 C11.14266226 3.14266226 10.36834455 6.66137359 10.375 10.9375 C10.39949219 11.76185547 10.42398438 12.58621094 10.44921875 13.43554688 C10.47829213 19.40043475 10.47829213 19.40043475 8.3515625 22.06640625 C6 23 6 23 0 23 C0 15.41 0 7.82 0 0 Z " fill="#040301" transform="translate(216,383)"/>
<path d="M0 0 C2.475 0.495 2.475 0.495 5 1 C5.14622803 1.59538574 5.29245605 2.19077148 5.44311523 2.80419922 C6.10545685 5.49507696 6.77143268 8.18504217 7.4375 10.875 C7.66759766 11.81214844 7.89769531 12.74929688 8.13476562 13.71484375 C8.35712891 14.61074219 8.57949219 15.50664062 8.80859375 16.4296875 C9.01282959 17.25710449 9.21706543 18.08452148 9.42749023 18.93701172 C9.94007994 21.03995155 9.94007994 21.03995155 11 23 C11.81474962 20.1047827 12.62687322 17.20887172 13.4375 14.3125 C13.66759766 13.49587891 13.89769531 12.67925781 14.13476562 11.83789062 C15.23183446 7.91070219 16.28776908 4.01960209 17 0 C18.32 0 19.64 0 21 0 C19.64858801 10.28686736 16.8921756 20.06504565 14 30 C12.02 30 10.04 30 8 30 C4.76588433 20.10842282 2.28419088 10.14520949 0 0 Z " fill="#D4B158" transform="translate(284,379)"/>
<path d="M0 0 C1.4540625 0.0309375 1.4540625 0.0309375 2.9375 0.0625 C3.2675 1.0525 3.5975 2.0425 3.9375 3.0625 C18.1275 3.0625 32.3175 3.0625 46.9375 3.0625 C46.9375 3.7225 46.9375 4.3825 46.9375 5.0625 C32.7475 5.0625 18.5575 5.0625 3.9375 5.0625 C3.9375 6.0525 3.9375 7.0425 3.9375 8.0625 C4.57558594 8.26746094 5.21367188 8.47242188 5.87109375 8.68359375 C6.69738281 8.95300781 7.52367188 9.22242188 8.375 9.5 C9.19871094 9.76683594 10.02242187 10.03367188 10.87109375 10.30859375 C12.9375 11.0625 12.9375 11.0625 13.9375 12.0625 C14.125 14.5 14.125 14.5 13.9375 17.0625 C11.9375 19.0625 11.9375 19.0625 9.5 19.125 C6.9375 18.0625 6.9375 18.0625 5.25 14.625 C4.816875 13.449375 4.38375 12.27375 3.9375 11.0625 C1.70827045 8.83327045 -0.15385278 8.18121047 -3.0625 7.0625 C-4.0625 6.0625 -4.0625 6.0625 -4.1875 3.5625 C-4.00295237 -0.12845252 -3.76342282 0.07680455 0 0 Z " fill="#00F6F6" transform="translate(104.0625,226.9375)"/>
<path d="M0 0 C5.61 0 11.22 0 17 0 C17 1.32 17 2.64 17 4 C14.69 4 12.38 4 10 4 C10 11.59 10 19.18 10 27 C12.31 27 14.62 27 17 27 C17 27.99 17 28.98 17 30 C11.39 30 5.78 30 0 30 C0 29.01 0 28.02 0 27 C1.98 27 3.96 27 6 27 C6 19.41 6 11.82 6 4 C4.02 4 2.04 4 0 4 C0 2.68 0 1.36 0 0 Z " fill="#D2AF57" transform="translate(262,423)"/>
<path d="M0 0 C5.61 0 11.22 0 17 0 C17 1.32 17 2.64 17 4 C14.69 4 12.38 4 10 4 C10 11.59 10 19.18 10 27 C12.31 27 14.62 27 17 27 C17 27.99 17 28.98 17 30 C11.39 30 5.78 30 0 30 C0 29.01 0 28.02 0 27 C1.98 27 3.96 27 6 27 C6 19.41 6 11.82 6 4 C4.02 4 2.04 4 0 4 C0 2.68 0 1.36 0 0 Z " fill="#D2AF57" transform="translate(262,379)"/>
<path d="M0 0 C5.61 0 11.22 0 17 0 C17 1.32 17 2.64 17 4 C14.69 4 12.38 4 10 4 C10 11.59 10 19.18 10 27 C12.31 27 14.62 27 17 27 C17 27.99 17 28.98 17 30 C11.39 30 5.78 30 0 30 C0 29.01 0 28.02 0 27 C1.98 27 3.96 27 6 27 C6 19.41 6 11.82 6 4 C4.02 4 2.04 4 0 4 C0 2.68 0 1.36 0 0 Z " fill="#D2AF57" transform="translate(163,379)"/>
<path d="M0 0 C6.93 0 13.86 0 21 0 C21 1.32 21 2.64 21 4 C18.03 4 15.06 4 12 4 C12 12.58 12 21.16 12 30 C10.68 30 9.36 30 8 30 C8 21.42 8 12.84 8 4 C5.36 4 2.72 4 0 4 C0 2.68 0 1.36 0 0 Z " fill="#CBA954" transform="translate(161,423)"/>
<path d="M0 0 C6.98555267 5.84792378 13.45054855 12.15903911 19.91821289 18.56811523 C21.27165405 19.90486543 22.63045535 21.23620888 23.99438477 22.56225586 C25.9758883 24.4891856 27.94060634 26.43188167 29.90234375 28.37890625 C30.51472397 28.9686171 31.12710419 29.55832794 31.75804138 30.16590881 C35.91409452 34.34318908 35.91409452 34.34318908 36.38110352 37.91381836 C36.19245728 38.94647827 36.19245728 38.94647827 36 40 C30.93288701 35.75789864 26.18776629 31.32282911 21.53515625 26.6328125 C20.85698349 25.95322479 20.17881073 25.27363708 19.48008728 24.57345581 C17.33850859 22.42632998 15.20045471 20.27573373 13.0625 18.125 C11.60114411 16.65862227 10.13955774 15.1924742 8.67773438 13.7265625 C5.11582065 10.15369 1.55706135 6.57770316 -2 3 C-1.34 2.01 -0.68 1.02 0 0 Z " fill="#000202" transform="translate(322,280)"/>
<path d="M0 0 C6.93 0 13.86 0 21 0 C21 1.32 21 2.64 21 4 C18.36 4 15.72 4 13 4 C13 12.58 13 21.16 13 30 C11.68 30 10.36 30 9 30 C9 21.09 9 12.18 9 3 C6.03 3 3.06 3 0 3 C0 2.01 0 1.02 0 0 Z " fill="#CCAA55" transform="translate(235,423)"/>
<path d="M0 0 C3.42412718 -0.43712262 4.69242881 -0.22833109 7.51123047 1.86425781 C8.8011792 3.14574707 8.8011792 3.14574707 10.1171875 4.453125 C11.05304688 5.38253906 11.98890625 6.31195313 12.953125 7.26953125 C13.43201172 7.7588916 13.91089844 8.24825195 14.40429688 8.75244141 C15.87386641 10.24884571 17.36828641 11.71663646 18.8671875 13.18359375 C19.7953125 14.11816406 20.7234375 15.05273438 21.6796875 16.015625 C22.95948486 17.30388184 22.95948486 17.30388184 24.26513672 18.61816406 C26 21 26 21 25.77001953 23.31152344 C25.51591309 23.8687207 25.26180664 24.42591797 25 25 C20.78745483 25 19.84526222 23.23267876 16.89453125 20.29296875 C16.4104631 19.81177078 15.92639496 19.33057281 15.42765808 18.83479309 C14.40616718 17.81534379 13.38845558 16.79209565 12.37426758 15.76538086 C10.8184322 14.1934934 9.24726805 12.638227 7.67382812 11.08398438 C6.68393249 10.09210632 5.69496786 9.09929806 4.70703125 8.10546875 C3.8044458 7.19949951 2.90186035 6.29353027 1.97192383 5.36010742 C0 3 0 3 0 0 Z " fill="#001010" transform="translate(151,136)"/>
<path d="M0 0 C0.33 0 0.66 0 1 0 C1.01401855 1.33961792 1.01401855 1.33961792 1.02832031 2.70629883 C1.07235304 6.02235162 1.13396861 9.33710939 1.20751953 12.65258789 C1.23573182 14.08703683 1.25694524 15.52164129 1.27099609 16.95629883 C1.29242449 19.01985302 1.33906467 21.08153706 1.390625 23.14453125 C1.41157227 24.38565674 1.43251953 25.62678223 1.45410156 26.90551758 C1.70083395 30.10058222 1.70083395 30.10058222 4.03808594 31.9284668 C4.68551758 32.28207275 5.33294922 32.63567871 6 33 C5.67 34.65 5.34 36.3 5 38 C0.25 39.125 0.25 39.125 -2 38 C-5.5 37.75 -5.5 37.75 -9 38 C-9.66 38.66 -10.32 39.32 -11 40 C-14.125 39.625 -14.125 39.625 -17 39 C-17.04254356 37.00045254 -17.04080783 34.99958364 -17 33 C-16 32 -16 32 -13.5 31.875 C-11 32 -11 32 -10 33 C-8.65252916 33.23075082 -7.29622435 33.41153063 -5.9375 33.5625 C-4.638125 33.706875 -3.33875 33.85125 -2 34 C-0.83597273 30.50791819 -0.78881492 27.60852228 -0.68359375 23.92578125 C-0.66281265 23.2419487 -0.64203156 22.55811615 -0.62062073 21.8535614 C-0.55533846 19.6733079 -0.49633983 17.49293595 -0.4375 15.3125 C-0.39429447 13.83267014 -0.35067953 12.35285217 -0.30664062 10.87304688 C-0.19967917 7.24882378 -0.09835177 3.62446811 0 0 Z " fill="#00D3D3" transform="translate(264,317)"/>
<path d="M0 0 C1.65 0 3.3 0 5 0 C5.33 1.65 5.66 3.3 6 5 C5.01 4.67 4.02 4.34 3 4 C3.33 4.66 3.66 5.32 4 6 C4.08471364 7.81341842 4.10721083 9.62994161 4.09765625 11.4453125 C4.09443359 12.52167969 4.09121094 13.59804688 4.08789062 14.70703125 C4.07951172 15.83496094 4.07113281 16.96289062 4.0625 18.125 C4.05798828 19.26066406 4.05347656 20.39632813 4.04882812 21.56640625 C4.03701615 24.37765638 4.02054507 27.1888023 4 30 C2.68 30 1.36 30 0 30 C0 20.1 0 10.2 0 0 Z " fill="#CCA954" transform="translate(335,379)"/>
<path d="M0 0 C6.0546875 -0.1953125 6.0546875 -0.1953125 8 0 C10 2 10 2 10.25 5 C10 8 10 8 8 10 C5.31160615 10.26991906 2.70858064 10.08737357 0 10 C0 6.7 0 3.4 0 0 Z " fill="#000000" transform="translate(241,383)"/>
<path d="M0 0 C2.5625 0.1875 2.5625 0.1875 4.5625 2.1875 C4.00694444 6.74305556 4.00694444 6.74305556 2.5625 8.1875 C2.32596477 10.71346259 2.14076308 13.21857207 2 15.75 C1.95681641 16.46091797 1.91363281 17.17183594 1.86914062 17.90429688 C1.76278223 19.66511912 1.66211154 21.4262832 1.5625 23.1875 C0.2425 22.8575 -1.0775 22.5275 -2.4375 22.1875 C-2.41429687 21.20007813 -2.39109375 20.21265625 -2.3671875 19.1953125 C-2.34914063 17.91398437 -2.33109375 16.63265625 -2.3125 15.3125 C-2.28929687 14.03632812 -2.26609375 12.76015625 -2.2421875 11.4453125 C-2.08108476 8.10156662 -2.08108476 8.10156662 -4.4375 6.1875 C-3.71780303 0.28598485 -3.71780303 0.28598485 0 0 Z " fill="#00DFDF" transform="translate(314.4375,84.8125)"/>
<path d="M0 0 C1.32 0 2.64 0 4 0 C4.11667875 3.22886009 4.18740546 6.45717445 4.25 9.6875 C4.28351563 10.59951172 4.31703125 11.51152344 4.3515625 12.45117188 C4.37089844 13.78051758 4.37089844 13.78051758 4.390625 15.13671875 C4.4220459 16.35427856 4.4220459 16.35427856 4.45410156 17.59643555 C4 20 4 20 0 25 C0 16.75 0 8.5 0 0 Z " fill="#000909" transform="translate(267,316)"/>
<path d="M0 0 C4.70588235 0.70588235 4.70588235 0.70588235 6 2 C6.1875 4.4375 6.1875 4.4375 6 7 C4 9 4 9 0.625 9.9375 C-2.67467869 10.9046472 -4.46478443 11.7690103 -7 14 C-5.92598892 11.08482708 -5.22189824 9.22189824 -3 7 C-2.30899447 5.00827818 -1.64097297 3.00838196 -1 1 C-0.67 0.67 -0.34 0.34 0 0 Z " fill="#00EEEE" transform="translate(111,192)"/>
<path d="M0 0 C0.33 0.99 0.66 1.98 1 3 C3.64 3 6.28 3 9 3 C9.33 3.66 9.66 4.32 10 5 C9.28972656 5.06058594 8.57945313 5.12117188 7.84765625 5.18359375 C6.92855469 5.26738281 6.00945312 5.35117188 5.0625 5.4375 C4.14597656 5.51871094 3.22945312 5.59992188 2.28515625 5.68359375 C0.03840268 5.76044976 0.03840268 5.76044976 -1 7 C-3.5 7.125 -3.5 7.125 -6 7 C-7 6 -7 6 -7.0625 2.9375 C-7.041875 1.968125 -7.02125 0.99875 -7 0 C-4.3333581 -1.33332095 -2.83319697 -0.67102033 0 0 Z " fill="#00F6F6" transform="translate(108,122)"/>
<path d="M0 0 C2.5625 0.1875 2.5625 0.1875 4.5625 2.1875 C6.55071313 2.58514263 8.55194339 2.92525349 10.5625 3.1875 C10.5625 3.5175 10.5625 3.8475 10.5625 4.1875 C8.5825 4.1875 6.6025 4.1875 4.5625 4.1875 C3.9025 5.5075 3.2425 6.8275 2.5625 8.1875 C-0.4075 7.6925 -0.4075 7.6925 -3.4375 7.1875 C-3.48004356 5.18795254 -3.47830783 3.18708364 -3.4375 1.1875 C-2.4375 0.1875 -2.4375 0.1875 0 0 Z " fill="#00F7F7" transform="translate(250.4375,348.8125)"/>
<path d="M0 0 C1.99954746 -0.04254356 4.00041636 -0.04080783 6 0 C7 1 7 1 7.0625 4.0625 C7.041875 5.031875 7.02125 6.00125 7 7 C6.195625 7.12375 5.39125 7.2475 4.5625 7.375 C3.2940625 7.684375 3.2940625 7.684375 2 8 C1.67 8.66 1.34 9.32 1 10 C-0.80411967 7.24075815 -1.0127245 6.11027897 -0.625 2.75 C-0.41875 1.8425 -0.2125 0.935 0 0 Z " fill="#00F4F4" transform="translate(155,113)"/>
<path d="M0 0 C2.18742014 3.2811302 2.54442806 5.33084356 3.125 9.1875 C3.29257813 10.27417969 3.46015625 11.36085938 3.6328125 12.48046875 C3.75398437 13.31191406 3.87515625 14.14335937 4 15 C1.69 15 -0.62 15 -3 15 C-2.68917128 13.24970238 -2.37626821 11.49977306 -2.0625 9.75 C-1.88847656 8.77546875 -1.71445313 7.8009375 -1.53515625 6.796875 C-1.09620271 4.50278205 -0.59651408 2.25708029 0 0 Z " fill="#171309" transform="translate(146,382)"/>
<path d="M0 0 C1.670625 0.061875 1.670625 0.061875 3.375 0.125 C2.1875 3.5625 2.1875 3.5625 0.375 7.125 C-2.1875 8.1875 -2.1875 8.1875 -4.625 8.125 C-5.285 7.465 -5.945 6.805 -6.625 6.125 C-6.05355836 1.55346689 -4.71465298 0.16257424 0 0 Z " fill="#00F7F7" transform="translate(406.625,226.875)"/>
<path d="M0 0 C5.28 0 10.56 0 16 0 C16 0.99 16 1.98 16 3 C10.72 3 5.44 3 0 3 C0 2.01 0 1.02 0 0 Z " fill="#E9C261" transform="translate(188,394)"/>
<path d="M0 0 C0.66 0.33 1.32 0.66 2 1 C0.50253294 4.88997191 -1.70422078 6.46948052 -5.125 8.75 C-6.49011719 9.67039063 -6.49011719 9.67039063 -7.8828125 10.609375 C-8.93082031 11.29773438 -8.93082031 11.29773438 -10 12 C-10.33 11.34 -10.66 10.68 -11 10 C-7.50640535 6.40365256 -3.88901869 3.16548033 0 0 Z " fill="#00E1E1" transform="translate(408,203)"/>
<path d="M0 0 C0.66 0 1.32 0 2 0 C1.875 2.25 1.875 2.25 1 5 C-2.0625 7.3125 -2.0625 7.3125 -5 9 C-3.50079488 5.88626628 -1.91847864 2.87771795 0 0 Z " fill="#00DCDC" transform="translate(154,122)"/>
</svg>
